<svg width="146" height="36" viewBox="0 0 146 36" fill="none" xmlns="http://www.w3.org/2000/svg">
<g id="Frame" clip-path="url(#clip0_268_3628)">
<path id="Vector" fill-rule="evenodd" clip-rule="evenodd" d="M0 17.7306C10.0682 17.7306 15.84 11.9588 15.84 1.89062C15.84 11.9588 21.6118 17.7306 31.68 17.7306C21.6118 17.7306 15.84 23.5024 15.84 33.5706C15.84 23.5024 10.0682 17.7306 0 17.7306Z" fill="#223043"/>
<path id="Vector_2" d="M37.937 24.8654L43.4666 9.74536H46.577L52.1066 24.8654H49.169L47.9594 21.3662H42.0626L40.8314 24.8654H37.937ZM42.8186 19.2062H47.2034L45.0002 12.9206L42.8186 19.2062Z" fill="#223043"/>
<path id="Vector_3" d="M57.652 25.1246C56.5576 25.1246 55.5928 24.887 54.7576 24.4118C53.9224 23.9366 53.26 23.2742 52.7704 22.4246C52.2952 21.575 52.0576 20.603 52.0576 19.5086C52.0576 18.4142 52.2952 17.4422 52.7704 16.5926C53.26 15.743 53.9224 15.0806 54.7576 14.6054C55.5928 14.1302 56.5576 13.8926 57.652 13.8926C59.02 13.8926 60.172 14.2526 61.108 14.9726C62.044 15.6782 62.6416 16.6574 62.9008 17.9102H59.9848C59.8408 17.3918 59.5528 16.9886 59.1208 16.7006C58.7032 16.3982 58.2064 16.247 57.6304 16.247C56.8672 16.247 56.2192 16.535 55.6864 17.111C55.1536 17.687 54.8872 18.4862 54.8872 19.5086C54.8872 20.531 55.1536 21.3302 55.6864 21.9062C56.2192 22.4822 56.8672 22.7702 57.6304 22.7702C58.2064 22.7702 58.7032 22.6262 59.1208 22.3382C59.5528 22.0502 59.8408 21.6398 59.9848 21.107H62.9008C62.6416 22.3166 62.044 23.2886 61.108 24.023C60.172 24.7574 59.02 25.1246 57.652 25.1246Z" fill="#223043"/>
<path id="Vector_4" d="M64.2744 24.8654V14.1518H66.7152L66.9528 15.599C67.2984 15.0806 67.752 14.6702 68.3136 14.3678C68.8896 14.051 69.552 13.8926 70.3008 13.8926C71.9568 13.8926 73.1302 14.5334 73.8214 15.815C74.2102 15.2246 74.7286 14.7566 75.3766 14.411C76.039 14.0654 76.759 13.8926 77.5366 13.8926C78.9334 13.8926 80.0062 14.3102 80.755 15.1454C81.5038 15.9806 81.8782 17.2046 81.8782 18.8174V24.8654H79.1134V19.0766C79.1134 18.155 78.9334 17.4494 78.5734 16.9598C78.2278 16.4702 77.6878 16.2254 76.9534 16.2254C76.2046 16.2254 75.5998 16.499 75.139 17.0462C74.6926 17.5934 74.4694 18.3566 74.4694 19.3358V24.8654H71.7048V19.0766C71.7048 18.155 71.5248 17.4494 71.1648 16.9598C70.8048 16.4702 70.2504 16.2254 69.5016 16.2254C68.7672 16.2254 68.1696 16.499 67.7088 17.0462C67.2624 17.5934 67.0392 18.3566 67.0392 19.3358V24.8654H64.2744Z" fill="#223043"/>
<path id="Vector_5" d="M88.6293 25.1246C87.5493 25.1246 86.5917 24.8942 85.7565 24.4334C84.9213 23.9726 84.2661 23.3246 83.7909 22.4894C83.3157 21.6542 83.0781 20.6894 83.0781 19.595C83.0781 18.4862 83.3085 17.4998 83.7693 16.6358C84.2445 15.7718 84.8925 15.1022 85.7133 14.627C86.5485 14.1374 87.5277 13.8926 88.6509 13.8926C89.7021 13.8926 90.6309 14.123 91.4373 14.5838C92.2437 15.0446 92.8701 15.6782 93.3165 16.4846C93.7773 17.2766 94.0077 18.1622 94.0077 19.1414C94.0077 19.2998 94.0005 19.4654 93.9861 19.6382C93.9861 19.811 93.9789 19.991 93.9645 20.1782H85.8213C85.8789 21.0134 86.1669 21.6686 86.6853 22.1438C87.2181 22.619 87.8589 22.8566 88.6077 22.8566C89.1693 22.8566 89.6373 22.7342 90.0117 22.4894C90.4005 22.2302 90.6885 21.899 90.8757 21.4958H93.6837C93.4821 22.1726 93.1437 22.7918 92.6685 23.3534C92.2077 23.9006 91.6317 24.3326 90.9405 24.6494C90.2637 24.9662 89.4933 25.1246 88.6293 25.1246ZM88.6509 16.139C87.9741 16.139 87.3765 16.3334 86.8581 16.7222C86.3397 17.0966 86.0085 17.6726 85.8645 18.4502H91.1997C91.1565 17.7446 90.8973 17.183 90.4221 16.7654C89.9469 16.3478 89.3565 16.139 88.6509 16.139Z" fill="#223043"/>
<path id="Vector_6" d="M106.232 25.1245C104.705 25.1245 103.395 24.8005 102.3 24.1525C101.206 23.4901 100.364 22.5757 99.7733 21.4093C99.1829 20.2285 98.8877 18.8677 98.8877 17.3269C98.8877 15.7861 99.1829 14.4253 99.7733 13.2445C100.364 12.0637 101.206 11.1421 102.3 10.4797C103.395 9.81728 104.705 9.48608 106.232 9.48608C108.046 9.48608 109.529 9.93968 110.681 10.8469C111.848 11.7397 112.575 12.9997 112.863 14.6269H109.817C109.63 13.8061 109.227 13.1653 108.608 12.7045C108.003 12.2293 107.196 11.9917 106.188 11.9917C104.792 11.9917 103.697 12.4669 102.905 13.4173C102.113 14.3677 101.717 15.6709 101.717 17.3269C101.717 18.9829 102.113 20.2861 102.905 21.2365C103.697 22.1725 104.792 22.6405 106.188 22.6405C107.196 22.6405 108.003 22.4245 108.608 21.9925C109.227 21.5461 109.63 20.9341 109.817 20.1565H112.863C112.575 21.7117 111.848 22.9285 110.681 23.8069C109.529 24.6853 108.046 25.1245 106.232 25.1245Z" fill="#223043"/>
<path id="Vector_7" d="M119.306 25.1246C118.269 25.1246 117.333 24.887 116.498 24.4118C115.677 23.9366 115.022 23.2814 114.533 22.4462C114.057 21.5966 113.82 20.6174 113.82 19.5086C113.82 18.3998 114.065 17.4278 114.554 16.5926C115.044 15.743 115.699 15.0806 116.52 14.6054C117.355 14.1302 118.291 13.8926 119.328 13.8926C120.35 13.8926 121.272 14.1302 122.093 14.6054C122.928 15.0806 123.583 15.743 124.058 16.5926C124.548 17.4278 124.793 18.3998 124.793 19.5086C124.793 20.6174 124.548 21.5966 124.058 22.4462C123.583 23.2814 122.928 23.9366 122.093 24.4118C121.257 24.887 120.329 25.1246 119.306 25.1246ZM119.306 22.727C120.026 22.727 120.653 22.4606 121.185 21.9278C121.718 21.3806 121.985 20.5742 121.985 19.5086C121.985 18.443 121.718 17.6438 121.185 17.111C120.653 16.5638 120.033 16.2902 119.328 16.2902C118.593 16.2902 117.96 16.5638 117.427 17.111C116.909 17.6438 116.649 18.443 116.649 19.5086C116.649 20.5742 116.909 21.3806 117.427 21.9278C117.96 22.4606 118.586 22.727 119.306 22.727Z" fill="#223043"/>
<path id="Vector_8" d="M126.185 24.8654V14.1518H128.647L128.907 16.1606C129.295 15.4694 129.821 14.9222 130.483 14.519C131.16 14.1014 131.952 13.8926 132.859 13.8926V16.8086H132.082C131.477 16.8086 130.937 16.9022 130.462 17.0894C129.987 17.2766 129.612 17.6006 129.339 18.0614C129.079 18.5222 128.95 19.163 128.95 19.9838V24.8654H126.185Z" fill="#223043"/>
<path id="Vector_9" d="M133.669 29.6174V14.1518H136.131L136.434 15.6854C136.779 15.2102 137.233 14.7926 137.795 14.4326C138.371 14.0726 139.112 13.8926 140.019 13.8926C141.027 13.8926 141.927 14.1374 142.719 14.627C143.511 15.1166 144.138 15.7862 144.599 16.6358C145.059 17.4854 145.29 18.4502 145.29 19.5302C145.29 20.6102 145.059 21.575 144.599 22.4246C144.138 23.2598 143.511 23.9222 142.719 24.4118C141.927 24.887 141.027 25.1246 140.019 25.1246C139.213 25.1246 138.507 24.9734 137.903 24.671C137.298 24.3686 136.808 23.9438 136.434 23.3966V29.6174H133.669ZM139.436 22.7054C140.315 22.7054 141.042 22.4102 141.618 21.8198C142.194 21.2294 142.482 20.4662 142.482 19.5302C142.482 18.5942 142.194 17.8238 141.618 17.219C141.042 16.6142 140.315 16.3118 139.436 16.3118C138.543 16.3118 137.809 16.6142 137.233 17.219C136.671 17.8094 136.391 18.5726 136.391 19.5086C136.391 20.4446 136.671 21.215 137.233 21.8198C137.809 22.4102 138.543 22.7054 139.436 22.7054Z" fill="#223043"/>
</g>
<defs>
<clipPath id="clip0_268_3628">
<rect width="145.44" height="34.56" fill="white" transform="translate(0 0.450684)"/>
</clipPath>
</defs>
</svg>
