<svg width="130" height="36" viewBox="0 0 130 36" fill="none" xmlns="http://www.w3.org/2000/svg">
<g id="Frame" clip-path="url(#clip0_268_3638)">
<path id="Vector" d="M19.1764 26.2176C16.6564 25.2816 14.0644 25.1376 11.6884 25.7856C10.0324 26.2176 8.4484 27.0816 7.00842 28.1616L6.0004 29.0256L5.7124 29.3136L6.36039 29.8896C6.43239 29.8896 6.4324 29.9616 6.5044 30.0336C6.6484 30.1776 6.79242 30.2496 7.00842 30.3936L7.44039 30.6816L7.8724 30.3216C7.9444 30.2496 8.0884 30.1056 8.2324 30.0336C9.5284 28.9536 10.9684 28.2336 12.4804 27.8736C14.4244 27.3696 16.5124 27.4416 18.6004 28.2336C20.3284 28.8816 23.8564 29.6736 28.1044 27.8736L28.2484 27.8016L28.4644 27.5856C28.4644 27.5136 28.5364 27.5136 28.6084 27.4416C28.9684 27.0096 29.3284 26.5776 29.6164 26.0736L31.0564 23.8416L28.7524 25.1376C25.3684 27.0096 22.2724 27.3696 19.1764 26.2176Z" fill="#223043"/>
<path id="Vector_2" d="M9.31196 18.4417C11.256 17.9377 13.344 18.0097 15.432 18.8017C17.736 19.6657 23.64 20.8897 30.264 14.9137L31.344 13.8337L31.416 13.7617L31.704 13.4737L31.56 13.1137C31.488 12.8257 31.344 12.4657 31.2 12.1057L30.84 11.0977L30.12 11.8177C30.048 11.9617 29.904 12.0337 29.76 12.1777C26.592 15.4177 21.696 18.7297 16.08 16.7137C13.56 15.7777 10.968 15.6337 8.59196 16.2817C6.28797 16.9297 4.27196 18.1537 2.39996 19.8817V19.8097L1.31996 20.9617C1.31996 21.0337 1.24797 21.0337 1.17597 21.1057L0.959961 21.3217L1.03197 21.6097C1.10397 21.9697 1.24796 22.3297 1.31996 22.6897L1.75197 23.8417L2.47197 22.9057C2.54397 22.7617 2.68796 22.6897 2.75996 22.5457C4.27196 21.1777 6.35997 19.2337 9.31196 18.4417Z" fill="#223043"/>
<path id="Vector_3" d="M2.32811 17.1456C3.98411 15.4176 5.85611 14.3376 7.8721 13.7616C9.8161 13.2576 11.9041 13.3296 13.9921 14.1216C20.4721 16.4976 26.0881 12.6096 28.5361 10.5216L29.4721 9.58559L29.8321 9.2976L29.5441 8.86559C29.3281 8.64959 29.1841 8.3616 28.9681 8.0736L28.5361 7.49756L28.0321 8.00159C27.9601 8.07359 27.8161 8.21759 27.7441 8.28959C24.7201 11.1696 20.0401 14.1216 14.7121 12.1056C12.1921 11.1696 9.6001 11.0256 7.22411 11.6736C5.71211 12.1056 4.2721 12.8256 2.8321 13.7616L1.3201 14.9856C1.1761 15.1296 1.1041 15.2016 0.960098 15.3456L0.816111 15.4896V15.7056C0.744111 16.2096 0.744102 16.7136 0.672102 17.1456L0.600098 18.9456L1.8241 17.6496C1.9681 17.5056 2.11211 17.2896 2.32811 17.1456Z" fill="#223043"/>
<path id="Vector_4" d="M21.2643 31.1135C21.0483 31.0415 20.9043 30.9695 20.6883 30.8975C18.1683 29.9615 15.5763 29.8175 13.2003 30.4655C12.6963 30.6095 12.1923 30.7535 11.6883 30.9695L9.96032 31.7615L9.52832 31.9775L10.9683 32.4815C11.4003 32.6255 11.8323 32.7695 12.2643 32.9135L12.4803 32.9855L12.6963 32.9135C12.9123 32.8415 13.1283 32.6975 13.3443 32.6975C13.4883 32.6975 13.6323 32.6255 13.7763 32.5535C15.5043 32.1215 17.3763 32.1215 19.3923 32.7695C19.6083 32.8415 19.7523 32.9135 19.9683 32.9855L20.3283 33.1295L20.5443 33.0575C21.0483 32.9135 21.6243 32.7695 22.0563 32.5535L24.0723 31.8335L21.9843 31.3295C21.7683 31.2575 21.4803 31.1855 21.2643 31.1135Z" fill="#223043"/>
<path id="Vector_5" d="M32.28 16.2097L31.2 17.2897C31.056 17.4337 30.9121 17.5777 30.7681 17.7217C27.8161 20.5297 23.064 23.5536 17.736 21.5376C15.216 20.6016 12.6241 20.4577 10.2481 21.1057C8.01611 21.7537 6.00006 22.9057 4.20006 24.6337L3.26407 25.6417L2.97607 26.0017L3.26407 26.4337C3.48007 26.7217 3.62407 26.9377 3.76807 27.2257L4.20006 27.8737L4.70407 27.2257C4.77607 27.1537 4.92007 27.0096 4.99207 26.9376C6.72007 25.0656 8.59204 23.9136 10.752 23.3376C12.696 22.8336 14.784 22.9056 16.872 23.6976C18.672 24.3456 20.544 24.5617 22.416 24.3457C25.728 23.9857 29.04 22.1137 31.4881 20.0257C31.6321 19.8817 31.776 19.8097 31.92 19.6657L32.136 19.4497V19.2337C32.136 18.8017 32.2081 18.2977 32.2081 17.8657L32.28 16.2097Z" fill="#223043"/>
<path id="Vector_6" d="M4.9202 9.58591C5.3522 9.36991 5.85623 9.22584 6.28823 9.08184C8.23222 8.57784 10.3202 8.64984 12.4082 9.44184C13.7762 9.94584 15.1442 10.1618 16.6562 10.1618C19.6802 10.1618 22.7042 9.08184 25.5122 6.99388L26.5922 6.12986L26.9522 5.84187L26.3042 5.33786C26.0882 5.12186 25.8002 4.90587 25.5122 4.76187L25.0802 4.47388L24.7202 4.76187C24.5762 4.83387 24.5042 4.97786 24.3602 5.04986C20.5442 7.92984 16.7282 8.72184 13.1282 7.35388C10.5362 6.41788 7.94422 6.20188 5.35221 6.99388C5.13621 7.06588 4.92021 7.13786 4.63221 7.20986L4.48823 7.28187L4.27221 7.49786C4.27221 7.56986 4.20023 7.56987 4.12823 7.64187C3.84023 8.07384 3.48021 8.43391 3.19221 8.86591L1.82422 10.9538L4.05622 9.80184C4.41622 9.80184 4.7042 9.65791 4.9202 9.58591Z" fill="#223043"/>
<path id="Vector_7" d="M10.824 4.68973L11.04 4.76174C11.976 5.12174 13.416 5.48174 15.216 5.48174C17.088 5.48174 18.888 5.04973 20.688 4.32973L22.92 3.24973L21.408 2.74574C20.976 2.60174 20.544 2.45774 20.04 2.38574H19.824L19.608 2.45773C19.392 2.52973 19.176 2.67374 18.96 2.74574C16.8 3.53774 14.64 3.68174 12.552 3.10574C12.336 3.03374 12.12 2.96173 11.904 2.88973L11.688 2.81773L11.472 2.88973C11.04 3.03373 10.608 3.17774 10.176 3.39374L8.52002 4.11374L10.248 4.61773C10.392 4.54573 10.608 4.61773 10.824 4.68973Z" fill="#223043"/>
<path id="Vector_8" d="M44.7217 24.8654H41.3999L46.4614 10.2036H50.4561L55.5105 24.8654H52.1887L48.516 13.5541H48.4015L44.7217 24.8654ZM44.5141 19.1023H52.3605V21.5221H44.5141V19.1023Z" fill="#223043"/>
<path id="Vector_9" d="M60.2676 10.2036V24.8654H57.2178V10.2036H60.2676Z" fill="#223043"/>
<path id="Vector_10" d="M68.5596 13.8689V16.1598H61.9375V13.8689H68.5596ZM63.4409 11.2344H66.4907V21.4862C66.4907 21.7678 66.5336 21.9873 66.6195 22.1448C66.7055 22.2975 66.8248 22.405 66.9775 22.467C67.135 22.529 67.3163 22.56 67.5216 22.56C67.6647 22.56 67.808 22.5481 67.9512 22.5243C68.0943 22.4956 68.2041 22.4742 68.2805 22.4598L68.7602 24.7293C68.6074 24.777 68.3926 24.8319 68.1158 24.8939C67.839 24.9607 67.5025 25.0013 67.1064 25.0156C66.3713 25.0443 65.7271 24.9464 65.1734 24.7221C64.6245 24.4978 64.1974 24.1494 63.8919 23.6768C63.5864 23.2044 63.4361 22.6078 63.4409 21.8871V11.2344Z" fill="#223043"/>
<path id="Vector_11" d="M74.5641 24.0706V13.9333H77.1273V24.0706H74.5641ZM70.7769 20.2835V17.7205H80.9145V20.2835H70.7769Z" fill="#223043"/>
<path id="Vector_12" d="M91.9247 14.4201C91.8678 13.8426 91.6216 13.394 91.1874 13.0742C90.7533 12.7544 90.1636 12.5946 89.4191 12.5946C88.9129 12.5946 88.486 12.6661 88.1375 12.8093C87.789 12.9477 87.5219 13.1411 87.3361 13.3892C87.1547 13.6374 87.064 13.919 87.064 14.234C87.0546 14.4965 87.1093 14.7256 87.2281 14.9213C87.3527 15.1169 87.5219 15.2864 87.7365 15.4296C87.9517 15.568 88.1994 15.6896 88.4817 15.7947C88.7632 15.8949 89.0634 15.9808 89.3831 16.0524L90.7007 16.3674C91.3401 16.5106 91.9276 16.7015 92.4618 16.9401C92.9961 17.1787 93.459 17.4723 93.8507 17.8207C94.2417 18.1691 94.5448 18.5796 94.7601 19.052C94.9797 19.5246 95.0913 20.0662 95.0963 20.6771C95.0913 21.5744 94.8623 22.3524 94.4087 23.011C93.9601 23.6649 93.3114 24.1732 92.4618 24.5359C91.6173 24.8939 90.5977 25.0728 89.4047 25.0728C88.221 25.0728 87.19 24.8915 86.3123 24.5288C85.4389 24.166 84.7564 23.6291 84.2646 22.9179C83.7779 22.202 83.5223 21.3167 83.4985 20.2619H86.4981C86.5319 20.7535 86.6723 21.164 86.9207 21.4933C87.1734 21.8178 87.5104 22.0636 87.9301 22.2307C88.3549 22.393 88.8345 22.4741 89.3687 22.4741C89.8943 22.4741 90.3501 22.3977 90.7367 22.245C91.1277 22.0923 91.4308 21.8799 91.6453 21.6078C91.8606 21.3358 91.9679 21.0232 91.9679 20.67C91.9679 20.3407 91.87 20.0638 91.6741 19.8396C91.4833 19.6152 91.2018 19.4243 90.8296 19.2668C90.4617 19.1093 90.0109 18.9661 89.4767 18.8373L87.8797 18.4364C86.6435 18.1357 85.6679 17.6656 84.9522 17.026C84.2358 16.3864 83.8801 15.525 83.8852 14.4416C83.8801 13.5539 84.117 12.7783 84.5937 12.1149C85.0761 11.4515 85.737 10.9337 86.5773 10.5614C87.4168 10.1891 88.3715 10.0029 89.4407 10.0029C90.5286 10.0029 91.4783 10.1891 92.2897 10.5614C93.1062 10.9337 93.7405 11.4515 94.1941 12.1149C94.6477 12.7783 94.8817 13.5467 94.8961 14.4201H91.9247Z" fill="#223043"/>
<path id="Vector_13" d="M100.174 18.5081V24.8654H97.124V10.2036H100.088V15.8092H100.217C100.466 15.1601 100.866 14.6518 101.42 14.2843C101.973 13.912 102.668 13.7259 103.503 13.7259C104.266 13.7259 104.932 13.8929 105.501 14.227C106.073 14.5563 106.517 15.0312 106.832 15.6516C107.152 16.2673 107.309 17.0047 107.305 17.8638V24.8654H104.255V18.4079C104.259 17.7302 104.088 17.2028 103.739 16.8257C103.396 16.4487 102.914 16.2602 102.293 16.2602C101.878 16.2602 101.51 16.3485 101.191 16.5251C100.876 16.7017 100.628 16.9594 100.446 17.2982C100.27 17.6324 100.179 18.0356 100.174 18.5081Z" fill="#223043"/>
<path id="Vector_14" d="M109.704 24.8654V13.8691H112.754V24.8654H109.704ZM111.236 12.4515C110.783 12.4515 110.394 12.3012 110.069 12.0005C109.75 11.6951 109.59 11.3299 109.59 10.9052C109.59 10.4852 109.75 10.1248 110.069 9.82417C110.394 9.51868 110.783 9.36597 111.236 9.36597C111.69 9.36597 112.077 9.51868 112.396 9.82417C112.72 10.1248 112.883 10.4852 112.883 10.9052C112.883 11.3299 112.72 11.6951 112.396 12.0005C112.077 12.3012 111.69 12.4515 111.236 12.4515Z" fill="#223043"/>
<path id="Vector_15" d="M122.201 13.8689V16.1598H114.324V13.8689H122.201ZM115.878 24.8652V13.0742C115.878 12.2772 116.033 11.6161 116.343 11.0911C116.658 10.5661 117.088 10.1724 117.632 9.90988C118.176 9.64737 118.794 9.51611 119.486 9.51611C119.954 9.51611 120.381 9.5519 120.768 9.62354C121.158 9.69511 121.45 9.75955 121.641 9.81679L121.097 12.1077C120.977 12.0695 120.829 12.0337 120.653 12.0003C120.481 11.9669 120.305 11.9502 120.123 11.9502C119.675 11.9502 119.362 12.0552 119.185 12.2652C119.009 12.4704 118.92 12.7592 118.92 13.1315V24.8652H115.878Z" fill="#223043"/>
<path id="Vector_16" d="M128.823 13.8689V16.1598H122.201V13.8689H128.823ZM123.704 11.2344H126.754V21.4862C126.754 21.7678 126.796 21.9873 126.883 22.1448C126.969 22.2975 127.088 22.405 127.241 22.467C127.398 22.529 127.58 22.56 127.785 22.56C127.928 22.56 128.071 22.5481 128.214 22.5243C128.357 22.4956 128.468 22.4742 128.544 22.4598L129.023 24.7293C128.871 24.777 128.655 24.8319 128.379 24.8939C128.102 24.9607 127.766 25.0013 127.37 25.0156C126.634 25.0443 125.99 24.9464 125.436 24.7221C124.888 24.4978 124.461 24.1494 124.155 23.6768C123.849 23.2044 123.699 22.6078 123.704 21.8871V11.2344Z" fill="#223043"/>
</g>
<defs>
<clipPath id="clip0_268_3638">
<rect width="128.88" height="34.56" fill="white" transform="translate(0.600098 0.450684)"/>
</clipPath>
</defs>
</svg>
