<svg width="35" height="36" viewBox="0 0 35 36" fill="none" xmlns="http://www.w3.org/2000/svg">
<g id="Arch-Linux-Logo--Streamline-Logos">
<path id="Vector" d="M29.1156 27.77C30.2569 29.8253 31.4225 31.8666 32.612 33.8936C28.9469 31.345 24.9022 29.4115 20.6326 28.1671C20.9443 27.3614 21.1001 26.5024 21.0945 25.6348C21.0945 22.5946 19.2783 20.1314 17.0286 20.1314C14.779 20.1314 12.9628 22.5946 12.9628 25.6363C12.9571 26.5024 13.113 27.3628 13.4246 28.1686C9.15522 29.4125 5.11049 31.3455 1.44531 33.8936C1.44531 33.8936 7.8274 23.1313 12.6653 12.9201L16.3515 13.9374L13.7901 10.4986C15.0339 7.81515 16.1154 5.05712 17.0286 2.23991C19.0205 8.66704 23.8046 18.0667 27.5573 24.9485H24.4817L29.1156 27.77Z" fill="#085140"/>
</g>
</svg>
