<svg width="124" height="36" viewBox="0 0 124 36" fill="none" xmlns="http://www.w3.org/2000/svg">
<g id="Frame" clip-path="url(#clip0_268_3655)">
<path id="Vector" fill-rule="evenodd" clip-rule="evenodd" d="M16.4801 33.5706C25.2284 33.5706 32.3201 26.4788 32.3201 17.7306C32.3201 8.98241 25.2284 1.89062 16.4801 1.89062C7.73193 1.89062 0.640137 8.98241 0.640137 17.7306C0.640137 26.4788 7.73193 33.5706 16.4801 33.5706ZM21.4216 9.26955C21.6622 8.41519 20.833 7.9099 20.0758 8.44939L9.50506 15.9799C8.68383 16.565 8.813 17.7306 9.69911 17.7306H12.4827V17.7091H17.9078L13.4873 19.2688L11.5386 26.1917C11.2981 27.0461 12.1272 27.5514 12.8845 27.0119L23.4552 19.4813C24.2764 18.8963 24.1472 17.7306 23.2612 17.7306H19.04L21.4216 9.26955Z" fill="#223043"/>
<path id="Vector_2" d="M40.5137 24.8654V22.3598H42.5009V12.251H40.5137V9.74536H48.2897C49.2113 9.74536 50.0105 9.90376 50.6873 10.2206C51.3785 10.523 51.9113 10.9622 52.2857 11.5382C52.6745 12.0998 52.8689 12.7766 52.8689 13.5686V13.7846C52.8689 14.4758 52.7393 15.0446 52.4801 15.491C52.2209 15.923 51.9113 16.2614 51.5513 16.5062C51.2057 16.7366 50.8745 16.9022 50.5577 17.003V17.3918C50.8745 17.4782 51.2201 17.6438 51.5945 17.8886C51.9689 18.119 52.2857 18.4574 52.5449 18.9038C52.8185 19.3502 52.9553 19.9334 52.9553 20.6534V20.8694C52.9553 21.7046 52.7609 22.4246 52.3721 23.0294C51.9833 23.6198 51.4433 24.0734 50.7521 24.3902C50.0753 24.707 49.2833 24.8654 48.3761 24.8654H40.5137ZM45.3521 22.2734H48.0305C48.6497 22.2734 49.1465 22.1222 49.5209 21.8198C49.9097 21.5174 50.1041 21.0854 50.1041 20.5238V20.3078C50.1041 19.7462 49.9169 19.3142 49.5425 19.0118C49.1681 18.7094 48.6641 18.5582 48.0305 18.5582H45.3521V22.2734ZM45.3521 15.9662H47.9873C48.5777 15.9662 49.0601 15.815 49.4345 15.5126C49.8233 15.2102 50.0177 14.7926 50.0177 14.2598V14.0438C50.0177 13.4966 49.8305 13.079 49.4561 12.791C49.0817 12.4886 48.5921 12.3374 47.9873 12.3374H45.3521V15.9662Z" fill="#223043"/>
<path id="Vector_3" d="M59.3933 25.1678C58.3277 25.1678 57.3701 24.9518 56.5205 24.5198C55.6709 24.0878 55.0013 23.4614 54.5117 22.6406C54.0221 21.8198 53.7773 20.8334 53.7773 19.6814V19.3358C53.7773 18.1838 54.0221 17.1974 54.5117 16.3766C55.0013 15.5558 55.6709 14.9294 56.5205 14.4974C57.3701 14.0654 58.3277 13.8494 59.3933 13.8494C60.4589 13.8494 61.4165 14.0654 62.2661 14.4974C63.1157 14.9294 63.7853 15.5558 64.2749 16.3766C64.7645 17.1974 65.0093 18.1838 65.0093 19.3358V19.6814C65.0093 20.8334 64.7645 21.8198 64.2749 22.6406C63.7853 23.4614 63.1157 24.0878 62.2661 24.5198C61.4165 24.9518 60.4589 25.1678 59.3933 25.1678ZM59.3933 22.7486C60.2285 22.7486 60.9197 22.4822 61.4669 21.9494C62.0141 21.4022 62.2877 20.6246 62.2877 19.6166V19.4006C62.2877 18.3926 62.0141 17.6222 61.4669 17.0894C60.9341 16.5422 60.2429 16.2686 59.3933 16.2686C58.5581 16.2686 57.8669 16.5422 57.3197 17.0894C56.7725 17.6222 56.4989 18.3926 56.4989 19.4006V19.6166C56.4989 20.6246 56.7725 21.4022 57.3197 21.9494C57.8669 22.4822 58.5581 22.7486 59.3933 22.7486Z" fill="#223043"/>
<path id="Vector_4" d="M66.4419 24.8654V9.74536H69.1635V24.8654H66.4419Z" fill="#223043"/>
<path id="Vector_5" d="M75.2035 24.8654C74.4979 24.8654 73.9219 24.6494 73.4755 24.2174C73.0435 23.771 72.8275 23.1806 72.8275 22.4462V16.3982H70.1489V14.1518H72.8275V10.8254H75.5491V14.1518H78.4867V16.3982H75.5491V21.971C75.5491 22.403 75.7507 22.619 76.1539 22.619H78.2275V24.8654H75.2035Z" fill="#223043"/>
<path id="Vector_6" d="M84.3191 25.1678C82.9223 25.1678 81.7774 24.8654 80.8846 24.2606C79.9918 23.6558 79.4518 22.7918 79.2646 21.6686L81.7703 21.0206C81.8711 21.5246 82.0367 21.9206 82.2671 22.2086C82.5119 22.4966 82.807 22.7054 83.1526 22.835C83.5126 22.9502 83.9015 23.0078 84.3191 23.0078C84.9527 23.0078 85.4206 22.8998 85.723 22.6838C86.0254 22.4534 86.1767 22.1726 86.1767 21.8414C86.1767 21.5102 86.0326 21.2582 85.7446 21.0854C85.4566 20.8982 84.9958 20.747 84.3622 20.6318L83.7575 20.5238C83.0087 20.3798 82.3247 20.1854 81.7055 19.9406C81.0863 19.6814 80.5895 19.3286 80.2151 18.8822C79.8407 18.4358 79.6534 17.8598 79.6534 17.1542C79.6534 16.0886 80.0423 15.275 80.8199 14.7134C81.5975 14.1374 82.6199 13.8494 83.8871 13.8494C85.0823 13.8494 86.0759 14.1158 86.8679 14.6486C87.6599 15.1814 88.1782 15.8798 88.423 16.7438L85.8959 17.5214C85.7807 16.9742 85.543 16.5854 85.183 16.355C84.8374 16.1246 84.4055 16.0094 83.8871 16.0094C83.3687 16.0094 82.9727 16.103 82.6991 16.2902C82.4255 16.463 82.2887 16.7078 82.2887 17.0246C82.2887 17.3702 82.4327 17.6294 82.7207 17.8022C83.0087 17.9606 83.3975 18.083 83.8871 18.1694L84.4918 18.2774C85.2982 18.4214 86.0254 18.6158 86.6734 18.8606C87.3358 19.091 87.8543 19.4294 88.2287 19.8758C88.6175 20.3078 88.8118 20.8982 88.8118 21.647C88.8118 22.7702 88.4015 23.6414 87.5807 24.2606C86.7743 24.8654 85.6871 25.1678 84.3191 25.1678Z" fill="#223043"/>
<path id="Vector_7" d="M90.1177 24.8654V9.74536H92.8393V15.4694H93.2281C93.3433 15.239 93.5233 15.0086 93.7681 14.7782C94.0129 14.5478 94.3369 14.3606 94.7401 14.2166C95.1577 14.0582 95.6833 13.979 96.3169 13.979C97.1521 13.979 97.8793 14.1734 98.4985 14.5622C99.1321 14.9366 99.6217 15.4622 99.9673 16.139C100.313 16.8014 100.486 17.579 100.486 18.4718V24.8654H97.7641V18.6878C97.7641 17.8814 97.5625 17.2766 97.1593 16.8734C96.7705 16.4702 96.2089 16.2686 95.4745 16.2686C94.6393 16.2686 93.9913 16.5494 93.5305 17.111C93.0697 17.6582 92.8393 18.4286 92.8393 19.4222V24.8654H90.1177Z" fill="#223043"/>
<path id="Vector_8" d="M102.347 24.8653V14.1517H105.069V24.8653H102.347ZM103.708 12.8989C103.218 12.8989 102.801 12.7405 102.455 12.4237C102.124 12.1069 101.958 11.6893 101.958 11.1709C101.958 10.6525 102.124 10.2349 102.455 9.91807C102.801 9.60127 103.218 9.44287 103.708 9.44287C104.212 9.44287 104.63 9.60127 104.961 9.91807C105.292 10.2349 105.458 10.6525 105.458 11.1709C105.458 11.6893 105.292 12.1069 104.961 12.4237C104.63 12.7405 104.212 12.8989 103.708 12.8989Z" fill="#223043"/>
<path id="Vector_9" d="M108.776 24.8654V16.3982H106.055V14.1518H108.776V12.1646C108.776 11.4302 108.992 10.847 109.424 10.415C109.871 9.96856 110.447 9.74536 111.152 9.74536H113.96V11.9918H112.103C111.699 11.9918 111.498 12.2078 111.498 12.6398V14.1518H114.306V16.3982H111.498V24.8654H108.776Z" fill="#223043"/>
<path id="Vector_10" d="M119.226 24.8654C118.52 24.8654 117.944 24.6494 117.498 24.2174C117.066 23.771 116.85 23.1806 116.85 22.4462V16.3982H114.171V14.1518H116.85V10.8254H119.571V14.1518H122.509V16.3982H119.571V21.971C119.571 22.403 119.773 22.619 120.176 22.619H122.25V24.8654H119.226Z" fill="#223043"/>
</g>
<defs>
<clipPath id="clip0_268_3655">
<rect width="122.4" height="34.56" fill="white" transform="translate(0.640137 0.450684)"/>
</clipPath>
</defs>
</svg>
