<svg width="116" height="36" viewBox="0 0 116 36" fill="none" xmlns="http://www.w3.org/2000/svg">
<g id="Frame" clip-path="url(#clip0_268_3666)">
<path id="Vector" d="M16.0402 1.89062C7.29197 1.89062 0.200195 8.98241 0.200195 17.7306C0.200195 26.4788 7.29197 33.5706 16.0402 33.5706C23.8889 33.5706 30.4043 27.8622 31.6612 20.3706H31.5475C30.3753 24.9252 26.2407 28.2906 21.3202 28.2906C15.4881 28.2906 10.7602 23.5628 10.7602 17.7306C10.7602 11.8985 15.4881 7.17062 21.3202 7.17062C26.2407 7.17062 30.3753 10.536 31.5475 15.0906H31.6612C30.4043 7.59906 23.8889 1.89062 16.0402 1.89062Z" fill="#223043"/>
<path id="Vector_2" d="M0.200195 17.7306C0.200195 8.98241 7.29201 1.89062 16.0402 1.89062C23.8889 1.89062 30.4043 7.59906 31.6612 15.0906H20.9875C19.8152 10.536 15.6807 7.17062 10.7602 7.17062C4.92807 7.17062 0.200195 11.8985 0.200195 17.7306Z" fill="#2C3E56"/>
<path id="Vector_3" d="M0.200195 17.7307C0.200195 26.4789 7.29201 33.5707 16.0402 33.5707C23.8889 33.5707 30.4043 27.8623 31.6612 20.3707H20.9875C19.8152 24.9253 15.6807 28.2907 10.7602 28.2907C4.92807 28.2907 0.200195 23.5629 0.200195 17.7307Z" fill="#2C3E56"/>
<path id="Vector_4" d="M54.5164 15.2158C54.0654 11.9584 51.5597 10.0684 48.3095 10.0684C44.4793 10.0684 41.5942 12.8604 41.5942 17.5997C41.5942 22.3319 44.4436 25.1311 48.3095 25.1311C51.7959 25.1311 54.1083 22.876 54.5164 20.0768L51.8389 20.0625C51.5024 21.7807 50.0992 22.7471 48.3452 22.7471C45.9685 22.7471 44.2646 20.9645 44.2646 17.5997C44.2646 14.2922 45.9541 12.4524 48.3524 12.4524C50.135 12.4524 51.531 13.4618 51.8389 15.2158H54.5164Z" fill="#223043"/>
<path id="Vector_5" d="M59.9981 25.1525C61.7235 25.1525 62.7544 24.3435 63.2269 23.4199H63.3128V24.9306H65.8041V17.571C65.8041 14.6644 63.4345 13.791 61.3369 13.791C59.0245 13.791 57.249 14.8219 56.6763 16.8265L59.0961 17.17C59.3538 16.4184 60.084 15.774 61.3512 15.774C62.5539 15.774 63.2126 16.3897 63.2126 17.4708V17.5137C63.2126 18.2583 62.4322 18.294 60.4921 18.5017C58.3587 18.7308 56.3184 19.3679 56.3184 21.8449C56.3184 24.007 57.9005 25.1525 59.9981 25.1525ZM60.6711 23.2481C59.59 23.2481 58.8169 22.7542 58.8169 21.802C58.8169 20.8069 59.6831 20.3917 60.8429 20.227C61.523 20.1339 62.8832 19.9621 63.2197 19.69V20.9859C63.2197 22.21 62.2318 23.2481 60.6711 23.2481Z" fill="#223043"/>
<path id="Vector_6" d="M73.9014 13.9344H71.7319V11.2998H69.1403V13.9344H67.5796V15.9389H69.1403V22.0528C69.1259 24.1218 70.6294 25.1383 72.5766 25.0811C73.3139 25.0596 73.8222 24.9164 74.1016 24.8233L73.6645 22.7973C73.522 22.8331 73.2282 22.8976 72.9056 22.8976C72.2548 22.8976 71.7319 22.6685 71.7319 21.6232V15.9389H73.9014V13.9344Z" fill="#223043"/>
<path id="Vector_7" d="M79.2331 25.1525C80.9583 25.1525 81.9893 24.3435 82.4616 23.4199H82.5473V24.9306H85.0392V17.571C85.0392 14.6644 82.669 13.791 80.5716 13.791C78.259 13.791 76.4842 14.8219 75.9111 16.8265L78.331 17.17C78.5887 16.4184 79.3188 15.774 80.586 15.774C81.7884 15.774 82.4472 16.3897 82.4472 17.4708V17.5137C82.4472 18.2583 81.6667 18.294 79.7271 18.5017C77.5937 18.7308 75.5532 19.3679 75.5532 21.8449C75.5532 24.007 77.1351 25.1525 79.2331 25.1525ZM79.9056 23.2481C78.8249 23.2481 78.0516 22.7542 78.0516 21.802C78.0516 20.8069 78.9178 20.3917 80.0777 20.227C80.7581 20.1339 82.1182 19.9621 82.4544 19.69V20.9859C82.4544 22.21 81.4666 23.2481 79.9056 23.2481Z" fill="#223043"/>
<path id="Vector_8" d="M90.2363 10.2688H87.645V24.9307H90.2363V10.2688Z" fill="#223043"/>
<path id="Vector_9" d="M97.6984 25.1453C100.92 25.1453 102.967 22.8759 102.967 19.4753C102.967 16.0676 100.92 13.791 97.6984 13.791C94.4764 13.791 92.4287 16.0676 92.4287 19.4753C92.4287 22.8759 94.4764 25.1453 97.6984 25.1453ZM97.7128 23.0692C95.9301 23.0692 95.0567 21.4798 95.0567 19.4681C95.0567 17.4565 95.9301 15.8457 97.7128 15.8457C99.4667 15.8457 100.34 17.4565 100.34 19.4681C100.34 21.4798 99.4667 23.0692 97.7128 23.0692Z" fill="#223043"/>
<path id="Vector_10" d="M109.949 29.2833C112.92 29.2833 115.111 27.923 115.111 25.1095V13.9342H112.555V15.7526H112.411C112.018 14.9579 111.195 13.791 109.254 13.791C106.713 13.791 104.715 15.7812 104.715 19.3966C104.715 22.9833 106.713 24.773 109.248 24.773C111.131 24.773 112.011 23.7636 112.411 22.9546H112.54V25.0379C112.54 26.6559 111.467 27.3217 109.992 27.3217C108.431 27.3217 107.744 26.5843 107.429 25.9399L105.095 26.5056C105.568 28.0447 107.15 29.2833 109.949 29.2833ZM109.971 22.7398C108.259 22.7398 107.358 21.4083 107.358 19.3822C107.358 17.3848 108.245 15.9172 109.971 15.9172C111.639 15.9172 112.555 17.2989 112.555 19.3822C112.555 21.4798 111.624 22.7398 109.971 22.7398Z" fill="#223043"/>
</g>
<defs>
<clipPath id="clip0_268_3666">
<rect width="115.2" height="34.56" fill="white" transform="translate(0.200195 0.450684)"/>
</clipPath>
</defs>
</svg>
