<svg width="35" height="36" viewBox="0 0 35 36" fill="none" xmlns="http://www.w3.org/2000/svg">
<g id="Codecov-Logo--Streamline-Logos">
<path id="Vector" d="M20.0545 29.8951C19.6053 31.3703 18.7884 32.7026 17.683 33.7626C13.8126 28.8275 14.6811 21.3674 19.4283 17.4107C20.7572 16.3103 22.309 15.5217 23.9729 15.1011C25.6367 14.6805 27.3714 14.6383 29.0532 14.9776C27.6507 10.0138 23.0521 6.49446 17.9677 6.49446C12.8833 6.49446 8.28623 10.0138 6.88373 14.9776C7.63311 14.8282 8.39522 14.7544 9.1589 14.7575C11.598 14.7621 13.9719 15.5575 15.9348 17.0279C15.0388 18.0783 14.299 19.2562 13.739 20.5242C12.4229 19.4584 10.7883 18.8804 9.10507 18.8854C7.66595 18.8755 6.25445 19.2865 5.03923 20.0696L2.33057 18.1962C2.33057 9.57494 9.42665 2.36942 17.9139 2.36942C26.4011 2.36942 33.4972 9.57494 33.4972 18.1962L30.7871 20.0667C27.3036 17.8236 22.4996 18.9056 20.335 22.481C19.6701 23.5899 19.2953 24.853 19.2462 26.1503C19.1971 27.4477 19.4753 28.7363 20.0545 29.8937V29.8951Z" fill="#085140"/>
</g>
</svg>
