<svg width="35" height="36" viewBox="0 0 35 36" fill="none" xmlns="http://www.w3.org/2000/svg">
<g id="Codeigniter-Logo--Streamline-Logos">
<path id="Vector" d="M17.879 2.23991C17.879 9.76197 4.51416 13.4942 4.51416 23.3414C4.62183 30.6937 10.552 33.9684 17.7812 33.8921C17.7501 32.6044 17.4299 31.0059 16.2541 30.2232C13.5964 28.4578 9.92441 27.8679 10.1185 25.0219C10.3112 22.176 13.306 17.7603 15.8673 15.2568C15.0952 18.5128 14.1772 24.8248 16.689 25.8075C19.2022 26.7888 22.4392 24.6953 23.744 23.304C24.7413 23.9586 26.5844 25.6996 25.9653 27.4261C25.1932 29.5858 22.6673 29.4448 21.8584 30.616C21.3867 31.3023 21.2436 32.5871 21.2011 33.6331C26.9627 32.626 31.4294 28.7556 31.4294 22.9615C31.4294 19.4782 28.9644 16.2726 24.8547 14.228C24.8547 14.228 24.8065 18.1531 21.568 17.1229C15.5585 15.2093 24.6138 8.19224 17.879 2.23991Z" fill="#085140"/>
</g>
</svg>
