<svg width="24" height="25" viewBox="0 0 24 25" fill="none" xmlns="http://www.w3.org/2000/svg">
<g id="2">
<path id="Vector" d="M10.6144 18.5556L11.492 16.5454C12.2731 14.7566 13.6789 13.3326 15.4325 12.5542L17.8482 11.4819C18.6162 11.141 18.6162 10.0237 17.8482 9.68278L15.5079 8.64395C13.7092 7.84553 12.2782 6.36882 11.5105 4.51895L10.6215 2.37674C10.2916 1.58178 9.19319 1.58178 8.8633 2.37674L7.97427 4.51893C7.20657 6.36882 5.77553 7.84553 3.97685 8.64395L1.63658 9.68278C0.868537 10.0237 0.868536 11.141 1.63658 11.4819L4.0523 12.5542C5.80589 13.3326 7.21171 14.7566 7.99275 16.5454L8.8704 18.5556C9.20776 19.3282 10.277 19.3282 10.6144 18.5556ZM19.4014 23.4499L19.6482 22.8842C20.0882 21.8756 20.8807 21.0725 21.8695 20.6332L22.6299 20.2953C23.0412 20.1126 23.0412 19.5149 22.6299 19.3322L21.9121 19.0132C20.8978 18.5626 20.0911 17.7298 19.6586 16.6869L19.4052 16.0756C19.2285 15.6496 18.6395 15.6496 18.4628 16.0756L18.2094 16.6869C17.777 17.7298 16.9703 18.5626 15.956 19.0132L15.2381 19.3322C14.8269 19.5149 14.8269 20.1126 15.2381 20.2953L15.9985 20.6332C16.9874 21.0725 17.7798 21.8756 18.2198 22.8842L18.4667 23.4499C18.6473 23.864 19.2207 23.864 19.4014 23.4499Z" fill="#FF7020"/>
</g>
</svg>
