<svg width="35" height="36" viewBox="0 0 35 36" fill="none" xmlns="http://www.w3.org/2000/svg">
<g id="Devicon-Logo--Streamline-Logos">
<path id="Vector" fill-rule="evenodd" clip-rule="evenodd" d="M29.984 25.9801L17.9424 33.8936L5.90072 25.9801L3.06738 2.23991H32.8174L29.984 25.9801ZM15.092 12.4122C15.3062 12.226 15.4388 11.961 15.4606 11.6756C15.4823 11.3901 15.3916 11.1075 15.2082 10.89C15.0249 10.6725 14.7639 10.5379 14.4829 10.5157C14.2018 10.4936 13.9235 10.5858 13.7094 10.772L8.75105 15.0884C8.6301 15.1936 8.53395 15.325 8.46973 15.4729C8.40551 15.6209 8.37485 15.7816 8.38002 15.9432C8.38519 16.1049 8.42605 16.2632 8.49959 16.4066C8.57313 16.5501 8.67747 16.6749 8.80488 16.7718L14.4715 21.0882C14.5871 21.1763 14.7192 21.2394 14.8597 21.2739C15.0001 21.3083 15.146 21.3133 15.2884 21.2885C15.4308 21.2637 15.5668 21.2097 15.6879 21.1298C15.8091 21.0498 15.9129 20.9456 15.993 20.8235L21.0364 13.1403L24.7452 15.9646L20.7927 19.4063C20.6857 19.4981 20.5976 19.6106 20.5336 19.7372C20.4695 19.8638 20.4308 20.002 20.4195 20.1439C20.4083 20.2857 20.4248 20.4284 20.4681 20.5638C20.5114 20.6992 20.5806 20.8245 20.6718 20.9326C20.763 21.0406 20.8743 21.1293 20.9994 21.1935C21.1244 21.2577 21.2608 21.2961 21.4005 21.3066C21.5403 21.3171 21.6807 21.2993 21.8137 21.2544C21.9467 21.2096 22.0696 21.1384 22.1754 21.0451L27.1337 16.7287C27.2547 16.6235 27.3508 16.4921 27.415 16.3441C27.4793 16.1962 27.5099 16.0354 27.5047 15.8738C27.4996 15.7122 27.4587 15.5538 27.3852 15.4104C27.3116 15.267 27.2073 15.1422 27.0799 15.0453L21.4132 10.7288C21.2976 10.6408 21.1656 10.5776 21.0251 10.5432C20.8847 10.5088 20.7388 10.5038 20.5964 10.5286C20.4539 10.5533 20.318 10.6074 20.1968 10.6873C20.0757 10.7673 19.9719 10.8715 19.8917 10.9936L14.8484 18.6768L11.1395 15.8524L15.092 12.4122Z" fill="#085140"/>
</g>
</svg>
