<svg width="187" height="48" viewBox="0 0 187 48" fill="none" xmlns="http://www.w3.org/2000/svg">
<g id="Group 2">
<path id="Union" fill-rule="evenodd" clip-rule="evenodd" d="M175.231 35.5914C178.39 35.5914 181.069 34.4994 183.275 32.3154C185.477 30.1314 186.58 27.4414 186.58 24.2382C186.58 21.035 185.477 18.345 183.275 16.161C181.073 13.977 178.39 12.885 175.231 12.885C172.071 12.885 169.388 13.977 167.186 16.161C164.984 18.345 163.881 21.035 163.881 24.2382C163.881 27.4414 164.98 30.1314 167.186 32.3154C169.388 34.4994 172.071 35.5914 175.231 35.5914ZM175.231 30.7247C173.422 30.7247 171.907 30.1205 170.692 28.9157C169.476 27.7108 168.868 26.1492 168.868 24.2382C168.868 22.3272 169.476 20.7657 170.692 19.5608C171.911 18.356 173.422 17.7517 175.231 17.7517C177.04 17.7517 178.554 18.356 179.77 19.5608C180.985 20.7657 181.593 22.3272 181.593 24.2382C181.593 26.1492 180.985 27.7108 179.77 28.9157C178.55 30.1205 177.04 30.7247 175.231 30.7247ZM73.2046 16.4559C71.1771 14.3665 68.6545 13.3218 65.6406 13.3218V13.3255H56.9082V35.1547H65.6406C68.6545 35.1547 71.1771 34.11 73.2046 32.0206C75.2321 29.9312 76.244 27.3359 76.244 24.2382C76.244 21.1406 75.2321 18.5453 73.2046 16.4559ZM69.8339 28.6827C68.7638 29.7929 67.366 30.3498 65.6406 30.3498V30.3535H61.8987V18.1267H65.6406C67.366 18.1267 68.7638 18.6836 69.8339 19.7938C70.9041 20.9076 71.4392 22.3855 71.4392 24.2382C71.4392 26.091 70.9041 27.5725 69.8339 28.6827ZM87.9393 26.7644L95.2667 13.3218H89.5919L85.4459 21.7084L81.2963 13.3218H75.6215L82.9489 26.7644V35.151H87.9393V26.7644ZM109.299 13.3218H114.289V35.151H110.548L102.128 23.2991V35.151H97.1377V13.3218H100.88L109.299 25.1737V13.3218ZM131.095 31.7258L132.264 35.1547H132.268H137.374L129.934 13.3255H123.572L116.15 35.1547H121.606L122.698 31.7258H131.095ZM129.497 27.0447H124.209H124.205L126.764 19.0294L129.497 27.0447ZM161.071 13.3218V35.151H156.081V22.4583L150.435 31.7221H149.874L144.229 22.4583V35.151H139.238V13.3218H144.229L150.155 23.0225L156.081 13.3218H161.071Z" fill="white"/>
<path id="Union_2" fill-rule="evenodd" clip-rule="evenodd" d="M24.5665 0.873047L28.1919 1.53189V1.52825C31.0457 2.04877 32.5454 4.73511 31.5226 7.49788C30.4997 10.2607 27.3256 12.0989 24.4718 11.5783L20.8464 10.9195L24.5665 0.873047ZM15.0697 2.60568L11.6626 4.01073L13.9668 14.4758L17.3738 13.0707C20.0565 11.9642 21.7309 8.70635 21.1012 5.8271C20.4679 2.95148 17.756 1.49912 15.0733 2.60568H15.0697ZM2.50439 13.6277L4.61197 10.6028H4.60833C6.26817 8.22226 9.33307 7.97474 11.4224 10.0532C13.5118 12.1316 13.8649 15.7789 12.205 18.1595L10.0975 21.1844L2.50439 13.6277ZM0.138321 22.9825L0 26.6662L10.476 28.9194L10.6143 25.2357C10.7235 22.3346 8.45212 19.4554 5.57287 18.8366C2.69361 18.2178 0.247521 20.0814 0.138321 22.9825ZM3.06853 35.8172L4.94314 38.9877L14.9714 35.2203L13.0968 32.0498C11.6189 29.5528 8.15364 28.3552 5.39814 29.3926C2.63901 30.43 1.59068 33.3202 3.06853 35.8172ZM39.8073 7.72356L37.1137 5.2083L28.5524 11.6511L31.246 14.1664C33.3681 16.1466 37.0264 16.3176 39.3815 14.545C41.7365 12.7723 41.9258 9.70373 39.8073 7.72356ZM45.3291 15.6406L46.2355 19.2114C46.9489 22.0215 45.1289 24.5004 42.1914 24.7188C39.2539 24.9372 36.2655 22.8151 35.552 20.0013L34.6457 16.4305L45.3291 15.6406ZM45.4311 32.3519L46.5995 28.8575L37.1828 23.7469L36.0143 27.2414C35.0934 29.9932 36.4584 33.393 39.0501 34.8017C41.6382 36.2067 44.5101 35.1074 45.4311 32.3556V32.3519ZM40.5207 40.6621L37.6488 42.9699C35.3883 44.7862 32.378 44.1601 30.9584 41.5794C29.5388 38.995 30.2304 35.395 32.4909 33.5786L35.3628 31.2708L40.5207 40.6621ZM25.3636 47.6946L29.0291 47.3051L29.7681 36.618L26.1026 37.0075C23.216 37.3133 20.6899 39.9668 20.486 42.908C20.2822 45.8455 22.4771 48.0004 25.3636 47.6946ZM15.7649 46.6863L12.4707 45.0301C9.879 43.727 9.19832 40.7276 10.9564 38.3652C12.7146 35.9992 16.2782 35.1329 18.8698 36.436L22.1641 38.0922L15.7649 46.6863Z" fill="url(#paint0_angular_242_4778)"/>
</g>
<defs>
<radialGradient id="paint0_angular_242_4778" cx="0" cy="0" r="1" gradientUnits="userSpaceOnUse" gradientTransform="translate(19.0874 33.9765) rotate(158.565) scale(20.554 20.4439)">
<stop stop-color="white"/>
<stop offset="1" stop-color="#11B68E"/>
</radialGradient>
</defs>
</svg>
