<svg width="137" height="36" viewBox="0 0 137 36" fill="none" xmlns="http://www.w3.org/2000/svg">
<g id="Frame" clip-path="url(#clip0_268_3677)">
<path id="Vector" d="M16.0975 3.33057C13.4767 3.33057 11.3599 5.42163 11.3599 8.01057C11.3599 10.5796 13.4767 12.6706 16.0773 12.6906C15.4322 12.6706 14.9282 12.1529 14.9282 11.5156C14.9282 10.8783 15.4523 10.3406 16.1176 10.3406C18.94 10.3406 25.2098 10.3406 27.9717 10.3406C29.9272 10.3406 31.5199 8.76736 31.5199 6.83561C31.5199 4.90384 29.9272 3.33057 27.9717 3.33057H16.0975Z" fill="#223043"/>
<path id="Vector_2" d="M10.3377 12.6907C7.7169 12.6907 5.6001 14.7818 5.6001 17.3707C5.6001 19.9397 7.7169 22.0307 10.3175 22.0507C9.67242 22.0307 9.16842 21.513 9.16842 20.8757C9.16842 20.2384 9.69258 19.7007 10.3579 19.7007C13.1803 19.7007 19.45 19.7007 22.2119 19.7007C24.1675 19.7007 25.7601 18.1275 25.7601 16.1957C25.7601 14.2639 24.1675 12.6907 22.2119 12.6907H10.3377Z" fill="#223043"/>
<path id="Vector_3" d="M6.35627 22.0508C3.54827 22.0508 1.28027 24.3027 1.28027 27.0908C1.28027 29.8575 3.54827 32.1093 6.33466 32.1308C5.64347 32.1093 5.10347 31.5518 5.10347 30.8654C5.10347 30.1791 5.66509 29.6001 6.3779 29.6001C9.40187 29.6001 16.1195 29.6001 19.0787 29.6001C21.1739 29.6001 22.8803 27.9057 22.8803 25.8255C22.8803 23.7451 21.1739 22.0508 19.0787 22.0508H6.35627Z" fill="#223043"/>
<path id="Vector_4" d="M38.7061 24.8654V9.74536H48.4261V12.3374H41.5573V15.9446H47.8213V18.5366H41.5573V22.2734H48.5557V24.8654H38.7061Z" fill="#223043"/>
<path id="Vector_5" d="M49.6719 29.1854V14.1518H52.3503V15.4478H52.7391C52.9839 15.0302 53.3655 14.663 53.8839 14.3462C54.4023 14.015 55.1439 13.8494 56.1087 13.8494C56.9727 13.8494 57.7719 14.0654 58.5063 14.4974C59.2407 14.915 59.8311 15.5342 60.2775 16.355C60.7239 17.1758 60.9471 18.1694 60.9471 19.3358V19.6814C60.9471 20.8478 60.7239 21.8414 60.2775 22.6622C59.8311 23.483 59.2407 24.1094 58.5063 24.5414C57.7719 24.959 56.9727 25.1678 56.1087 25.1678C55.4607 25.1678 54.9135 25.0886 54.4671 24.9302C54.0351 24.7862 53.6823 24.599 53.4087 24.3686C53.1495 24.1238 52.9407 23.879 52.7823 23.6342H52.3935V29.1854H49.6719ZM55.2879 22.7918C56.1375 22.7918 56.8359 22.5254 57.3831 21.9926C57.9447 21.4454 58.2255 20.6534 58.2255 19.6166V19.4006C58.2255 18.3638 57.9447 17.579 57.3831 17.0462C56.8215 16.499 56.1231 16.2254 55.2879 16.2254C54.4527 16.2254 53.7543 16.499 53.1927 17.0462C52.6311 17.579 52.3503 18.3638 52.3503 19.4006V19.6166C52.3503 20.6534 52.6311 21.4454 53.1927 21.9926C53.7543 22.5254 54.4527 22.7918 55.2879 22.7918Z" fill="#223043"/>
<path id="Vector_6" d="M62.3663 24.8653V14.1517H65.0879V24.8653H62.3663ZM63.7271 12.8989C63.2375 12.8989 62.8199 12.7405 62.4743 12.4237C62.1431 12.1069 61.9775 11.6893 61.9775 11.1709C61.9775 10.6525 62.1431 10.2349 62.4743 9.91807C62.8199 9.60127 63.2375 9.44287 63.7271 9.44287C64.2311 9.44287 64.6487 9.60127 64.9799 9.91807C65.3111 10.2349 65.4767 10.6525 65.4767 11.1709C65.4767 11.6893 65.3111 12.1069 64.9799 12.4237C64.6487 12.7405 64.2311 12.8989 63.7271 12.8989Z" fill="#223043"/>
<path id="Vector_7" d="M72.057 25.1678C71.0203 25.1678 70.077 24.9518 69.2274 24.5198C68.3922 24.0878 67.7299 23.4614 67.2403 22.6406C66.7507 21.8198 66.5059 20.8262 66.5059 19.6598V19.3574C66.5059 18.191 66.7507 17.1974 67.2403 16.3766C67.7299 15.5558 68.3922 14.9294 69.2274 14.4974C70.077 14.0654 71.0203 13.8494 72.057 13.8494C73.0795 13.8494 73.9579 14.0294 74.6923 14.3894C75.4267 14.7494 76.0171 15.2462 76.4635 15.8798C76.9243 16.499 77.2267 17.2046 77.3707 17.9966L74.7355 18.5582C74.6779 18.1262 74.5483 17.7374 74.3467 17.3918C74.1451 17.0462 73.8571 16.7726 73.4827 16.571C73.1227 16.3694 72.6691 16.2686 72.1218 16.2686C71.5746 16.2686 71.0778 16.391 70.6314 16.6358C70.1995 16.8662 69.8539 17.219 69.5947 17.6942C69.3499 18.155 69.2274 18.7238 69.2274 19.4006V19.6166C69.2274 20.2934 69.3499 20.8694 69.5947 21.3446C69.8539 21.8054 70.1995 22.1582 70.6314 22.403C71.0778 22.6334 71.5746 22.7486 72.1218 22.7486C72.9427 22.7486 73.5619 22.5398 73.9795 22.1222C74.4115 21.6902 74.6851 21.1286 74.8003 20.4374L77.4355 21.0638C77.2483 21.827 76.9243 22.5254 76.4635 23.159C76.0171 23.7782 75.4267 24.2678 74.6923 24.6278C73.9579 24.9878 73.0795 25.1678 72.057 25.1678Z" fill="#223043"/>
<path id="Vector_8" d="M82.6825 25.0383C81.8473 25.0383 81.1129 24.8511 80.4793 24.4767C79.8601 24.0879 79.3777 23.5551 79.0321 22.8783C78.6865 22.2015 78.5137 21.4239 78.5137 20.5455V14.1519H81.2353V20.3295C81.2353 21.1359 81.4297 21.7407 81.8185 22.1439C82.2217 22.5471 82.7905 22.7487 83.5249 22.7487C84.3601 22.7487 85.0081 22.4751 85.4689 21.9279C85.9297 21.3663 86.1601 20.5887 86.1601 19.5951V14.1519H88.8817V24.8655H86.2033V23.4615H85.8145C85.6417 23.8215 85.3177 24.1743 84.8425 24.5199C84.3673 24.8655 83.6473 25.0383 82.6825 25.0383Z" fill="#223043"/>
<path id="Vector_9" d="M90.8301 24.8654V14.1518H93.5085V15.3614H93.8973C94.0557 14.9294 94.3149 14.6126 94.6749 14.411C95.0493 14.2094 95.4813 14.1086 95.9709 14.1086H97.2669V16.5278H95.9277C95.2365 16.5278 94.6677 16.715 94.2213 17.0894C93.7749 17.4494 93.5517 18.011 93.5517 18.7742V24.8654H90.8301Z" fill="#223043"/>
<path id="Vector_10" d="M98.3146 24.8653V14.1517H101.036V24.8653H98.3146ZM99.6754 12.8989C99.1858 12.8989 98.7682 12.7405 98.4226 12.4237C98.0914 12.1069 97.9258 11.6893 97.9258 11.1709C97.9258 10.6525 98.0914 10.2349 98.4226 9.91807C98.7682 9.60127 99.1858 9.44287 99.6754 9.44287C100.179 9.44287 100.597 9.60127 100.928 9.91807C101.259 10.2349 101.425 10.6525 101.425 11.1709C101.425 11.6893 101.259 12.1069 100.928 12.4237C100.597 12.7405 100.179 12.8989 99.6754 12.8989Z" fill="#223043"/>
<path id="Vector_11" d="M108.07 25.1678C107.005 25.1678 106.047 24.9518 105.197 24.5198C104.348 24.0878 103.678 23.4614 103.189 22.6406C102.699 21.8198 102.454 20.8334 102.454 19.6814V19.3358C102.454 18.1838 102.699 17.1974 103.189 16.3766C103.678 15.5558 104.348 14.9294 105.197 14.4974C106.047 14.0654 107.005 13.8494 108.07 13.8494C109.136 13.8494 110.093 14.0654 110.943 14.4974C111.793 14.9294 112.462 15.5558 112.952 16.3766C113.441 17.1974 113.686 18.1838 113.686 19.3358V19.6814C113.686 20.8334 113.441 21.8198 112.952 22.6406C112.462 23.4614 111.793 24.0878 110.943 24.5198C110.093 24.9518 109.136 25.1678 108.07 25.1678ZM108.07 22.7486C108.905 22.7486 109.597 22.4822 110.144 21.9494C110.691 21.4022 110.965 20.6246 110.965 19.6166V19.4006C110.965 18.3926 110.691 17.6222 110.144 17.0894C109.611 16.5422 108.92 16.2686 108.07 16.2686C107.235 16.2686 106.544 16.5422 105.997 17.0894C105.449 17.6222 105.176 18.3926 105.176 19.4006V19.6166C105.176 20.6246 105.449 21.4022 105.997 21.9494C106.544 22.4822 107.235 22.7486 108.07 22.7486Z" fill="#223043"/>
<path id="Vector_12" d="M119.2 25.0383C118.365 25.0383 117.63 24.8511 116.997 24.4767C116.378 24.0879 115.895 23.5551 115.55 22.8783C115.204 22.2015 115.031 21.4239 115.031 20.5455V14.1519H117.753V20.3295C117.753 21.1359 117.947 21.7407 118.336 22.1439C118.739 22.5471 119.308 22.7487 120.042 22.7487C120.878 22.7487 121.526 22.4751 121.986 21.9279C122.447 21.3663 122.678 20.5887 122.678 19.5951V14.1519H125.399V24.8655H122.721V23.4615H122.332C122.159 23.8215 121.835 24.1743 121.36 24.5199C120.885 24.8655 120.165 25.0383 119.2 25.0383Z" fill="#223043"/>
<path id="Vector_13" d="M131.798 25.1678C130.401 25.1678 129.256 24.8654 128.363 24.2606C127.47 23.6558 126.93 22.7918 126.743 21.6686L129.249 21.0206C129.35 21.5246 129.515 21.9206 129.746 22.2086C129.99 22.4966 130.286 22.7054 130.631 22.835C130.991 22.9502 131.38 23.0078 131.798 23.0078C132.431 23.0078 132.899 22.8998 133.202 22.6838C133.504 22.4534 133.655 22.1726 133.655 21.8414C133.655 21.5102 133.511 21.2582 133.223 21.0854C132.935 20.8982 132.474 20.747 131.841 20.6318L131.236 20.5238C130.487 20.3798 129.803 20.1854 129.184 19.9406C128.565 19.6814 128.068 19.3286 127.694 18.8822C127.319 18.4358 127.132 17.8598 127.132 17.1542C127.132 16.0886 127.521 15.275 128.298 14.7134C129.076 14.1374 130.098 13.8494 131.366 13.8494C132.561 13.8494 133.554 14.1158 134.346 14.6486C135.138 15.1814 135.657 15.8798 135.902 16.7438L133.374 17.5214C133.259 16.9742 133.022 16.5854 132.662 16.355C132.316 16.1246 131.884 16.0094 131.366 16.0094C130.847 16.0094 130.451 16.103 130.178 16.2902C129.904 16.463 129.767 16.7078 129.767 17.0246C129.767 17.3702 129.911 17.6294 130.199 17.8022C130.487 17.9606 130.876 18.083 131.366 18.1694L131.97 18.2774C132.777 18.4214 133.504 18.6158 134.152 18.8606C134.814 19.091 135.333 19.4294 135.707 19.8758C136.096 20.3078 136.29 20.8982 136.29 21.647C136.29 22.7702 135.88 23.6414 135.059 24.2606C134.253 24.8654 133.166 25.1678 131.798 25.1678Z" fill="#223043"/>
</g>
<defs>
<clipPath id="clip0_268_3677">
<rect width="136.08" height="34.56" fill="white" transform="translate(0.560059 0.450684)"/>
</clipPath>
</defs>
</svg>
