<svg width="144" height="36" viewBox="0 0 144 36" fill="none" xmlns="http://www.w3.org/2000/svg">
<g id="Frame" clip-path="url(#clip0_268_3691)">
<path id="Vector" d="M26.941 8.4882C26.6298 8.17702 26.3186 7.86576 26.0074 7.55459C25.0738 6.55875 24.0779 5.56292 22.8331 4.94053C21.4016 4.19365 19.8456 4.38037 18.2896 4.38037C15.9246 4.38037 10.0118 4.38037 6.52637 4.38037L8.89149 7.55459C13.186 7.55459 19.9079 7.55459 23.0199 7.55459C24.3269 7.55459 25.4472 7.80356 26.5053 8.4882C26.692 8.55041 26.8787 8.55041 26.941 8.4882Z" fill="#223043"/>
<path id="Vector_2" d="M29.5548 13.5919C29.2437 13.2808 28.9324 12.9696 28.6212 12.6583C27.6877 11.6625 26.6918 10.6666 25.447 10.0443C24.0155 9.29742 22.4595 9.48412 20.9035 9.48412C18.8496 9.48412 13.9326 9.48412 10.4473 9.48412L12.8123 12.6583C17.0446 12.6583 22.8329 12.6583 25.696 12.6583C27.003 12.6583 28.1233 12.9073 29.1814 13.5919C29.3059 13.6541 29.4304 13.6541 29.5548 13.5919Z" fill="#223043"/>
<path id="Vector_3" d="M32.4794 18.571C32.1682 18.2598 31.857 17.9485 31.5458 17.6373C30.6122 16.6415 29.6164 15.6457 28.3716 15.0233C26.9401 14.2764 25.3841 14.4631 23.8281 14.4631C21.8986 14.4631 17.6664 14.4631 14.2432 14.4631L16.6083 17.6373C20.7161 17.6373 25.9442 17.6373 28.5583 17.6373C29.8654 17.6373 30.9857 17.8863 32.0437 18.571C32.2304 18.6332 32.3549 18.6954 32.4794 18.571Z" fill="#223043"/>
<path id="Vector_4" d="M6.27734 26.9732C6.58854 27.2844 6.89974 27.5955 7.21094 27.9068C8.14456 28.9026 9.14039 29.8985 10.3851 30.5208C11.8167 31.2677 13.3727 31.081 14.9287 31.081H26.692L24.3268 27.9068C20.0323 27.9068 13.3104 27.9068 10.1984 27.9068C8.89141 27.9068 7.77109 27.6578 6.71302 26.9732C6.5263 26.911 6.40182 26.911 6.27734 26.9732Z" fill="#223043"/>
<path id="Vector_5" d="M3.66309 21.8697C3.97428 22.1809 4.28548 22.4921 4.59668 22.8033C5.53028 23.7991 6.5261 24.795 7.7709 25.4174C9.20243 26.1642 10.7584 25.9775 12.3144 25.9775H22.7707L20.4056 22.8033C16.1733 22.8033 10.385 22.8033 7.52194 22.8033C6.21491 22.8033 5.09459 22.5544 4.03651 21.8697C3.91203 21.8074 3.78756 21.8074 3.66309 21.8697Z" fill="#223043"/>
<path id="Vector_6" d="M0.799805 16.8282C1.111 17.1394 1.4222 17.4506 1.7334 17.7618C2.667 18.7576 3.66283 19.7535 4.90763 20.3759C6.33914 21.1227 7.89512 20.936 9.45111 20.936H19.036L16.6709 17.7618C12.5631 17.7618 7.33497 17.7618 4.72091 17.7618C3.41387 17.7618 2.29355 17.5129 1.23548 16.8282C1.04876 16.7659 0.924284 16.7659 0.799805 16.8282Z" fill="#223043"/>
<path id="Vector_7" d="M39.6309 10.5366V24.9309H42.796V18.9837H48.8238V16.5241H42.796V13.1977H49.7512V10.5366H39.6309Z" fill="#223043"/>
<path id="Vector_8" d="M57.6896 18.6006H53.0326C53.046 18.399 53.0864 18.1704 53.1536 17.9151C53.2342 17.6597 53.3619 17.4178 53.5366 17.1894C53.7248 16.9608 53.9667 16.7727 54.2624 16.6249C54.5715 16.4636 54.9545 16.383 55.4115 16.383C56.1104 16.383 56.6278 16.5711 56.9638 16.9474C57.3133 17.3237 57.5552 17.8748 57.6896 18.6006ZM53.0326 20.415H60.5523C60.606 19.6086 60.5389 18.8357 60.3507 18.0966C60.1625 17.3573 59.8534 16.6987 59.4234 16.1209C59.0067 15.5429 58.4691 15.0859 57.8106 14.75C57.152 14.4005 56.3792 14.2258 55.4922 14.2258C54.6992 14.2258 53.9734 14.367 53.3149 14.6492C52.6698 14.9314 52.112 15.3212 51.6416 15.8185C51.1712 16.3023 50.8083 16.8802 50.553 17.5522C50.2976 18.2242 50.1699 18.95 50.1699 19.7295C50.1699 20.5359 50.2909 21.2751 50.5328 21.9471C50.7881 22.6191 51.1443 23.197 51.6013 23.6809C52.0582 24.1647 52.616 24.541 53.2746 24.8098C53.9331 25.0651 54.6723 25.1929 55.4922 25.1929C56.6748 25.1929 57.6828 24.924 58.5162 24.3865C59.3494 23.8488 59.9677 22.9551 60.3709 21.7052H57.8509C57.7568 22.0278 57.5014 22.3368 57.0848 22.6326C56.6681 22.9148 56.1708 23.0559 55.593 23.0559C54.7866 23.0559 54.1683 22.8475 53.7382 22.431C53.3081 22.0143 53.073 21.3423 53.0326 20.415Z" fill="#223043"/>
<path id="Vector_9" d="M61.5247 17.7135C61.565 17.0415 61.733 16.4838 62.0287 16.0402C62.3244 15.5967 62.7007 15.2405 63.1577 14.9718C63.6147 14.7029 64.1253 14.5148 64.6898 14.4073C65.2678 14.2863 65.8456 14.2258 66.4236 14.2258C66.9477 14.2258 67.4786 14.2662 68.0162 14.3468C68.5539 14.414 69.0444 14.5551 69.4879 14.7702C69.9314 14.9851 70.2943 15.2875 70.5765 15.6774C70.8588 16.0536 70.9999 16.5576 70.9999 17.1894V22.6124C70.9999 23.0828 71.0268 23.533 71.0805 23.9631C71.1343 24.3932 71.2284 24.7157 71.3628 24.9308H68.4598C68.406 24.7695 68.359 24.6082 68.3186 24.4469C68.2918 24.2722 68.2716 24.0975 68.2582 23.9228C67.8012 24.3932 67.2636 24.7224 66.6453 24.9106C66.0271 25.0988 65.3954 25.1929 64.7503 25.1929C64.253 25.1929 63.7893 25.1324 63.3593 25.0114C62.9292 24.8905 62.5529 24.7023 62.2303 24.4469C61.9077 24.1916 61.6524 23.869 61.4642 23.4793C61.2895 23.0895 61.2021 22.6258 61.2021 22.0882C61.2021 21.4968 61.3029 21.013 61.5045 20.6367C61.7196 20.2469 61.9884 19.9378 62.3109 19.7094C62.647 19.4808 63.0232 19.3128 63.4399 19.2054C63.87 19.0844 64.3001 18.9903 64.7301 18.9231C65.1602 18.8559 65.5836 18.8022 66.0002 18.7618C66.4169 18.7215 66.7865 18.661 67.109 18.5804C67.4316 18.4998 67.687 18.3855 67.8751 18.2377C68.0632 18.0764 68.1507 17.8479 68.1372 17.5522C68.1372 17.2431 68.0834 17.0011 67.9759 16.8265C67.8818 16.6383 67.7475 16.4971 67.5727 16.4031C67.4114 16.2955 67.2165 16.2284 66.9881 16.2015C66.773 16.1612 66.5379 16.141 66.2825 16.141C65.718 16.141 65.2745 16.262 64.9519 16.5039C64.6293 16.7458 64.4412 17.149 64.3874 17.7135H61.5247ZM68.1372 19.8303C68.0162 19.9378 67.8616 20.0251 67.6735 20.0924C67.4988 20.1461 67.3039 20.1932 67.0889 20.2335C66.8873 20.2738 66.6722 20.3074 66.4437 20.3343C66.2153 20.3612 65.9868 20.3948 65.7583 20.4351C65.5432 20.4754 65.3283 20.5291 65.1132 20.5964C64.9116 20.6636 64.7302 20.7577 64.5689 20.8786C64.4211 20.9861 64.3001 21.1272 64.206 21.302C64.1119 21.4767 64.0649 21.6984 64.0649 21.9673C64.0649 22.2226 64.1119 22.4376 64.206 22.6124C64.3001 22.7871 64.4278 22.9282 64.589 23.0358C64.7503 23.1298 64.9384 23.197 65.1535 23.2374C65.3686 23.2777 65.5903 23.2978 65.8188 23.2978C66.3833 23.2978 66.8201 23.2037 67.1292 23.0156C67.4383 22.8274 67.6668 22.6056 67.8146 22.3503C67.9624 22.0815 68.0498 21.8127 68.0767 21.5439C68.117 21.2751 68.1372 21.0601 68.1372 20.8988V19.8303Z" fill="#223043"/>
<path id="Vector_10" d="M76.246 14.5081V11.3833H73.3832V14.5081H71.6494V16.4233H73.3832V22.5721C73.3832 23.0963 73.4704 23.5196 73.6453 23.8422C73.8203 24.1647 74.055 24.4134 74.3509 24.5881C74.6598 24.7628 75.0097 24.877 75.3992 24.9308C75.8024 24.998 76.2258 25.0316 76.6693 25.0316C76.9516 25.0316 77.2403 25.0249 77.5362 25.0115C77.8321 24.998 78.1007 24.9711 78.3426 24.9308V22.7132C78.208 22.7401 78.0668 22.7602 77.9192 22.7737C77.7716 22.7871 77.6168 22.7939 77.4556 22.7939C76.9717 22.7939 76.6492 22.7132 76.4879 22.5519C76.3266 22.3907 76.246 22.0681 76.246 21.5843V16.4233H78.3426V14.5081H76.246Z" fill="#223043"/>
<path id="Vector_11" d="M79.0996 10.5366V24.9309H81.9623V19.4675C81.9623 18.4057 82.1366 17.6463 82.4865 17.1894C82.8357 16.719 83.4002 16.4838 84.1799 16.4838C84.8654 16.4838 85.342 16.6988 85.6113 17.1289C85.8798 17.5455 86.0145 18.184 86.0145 19.0441V24.9309H88.8772V18.52C88.8772 17.8749 88.8167 17.2902 88.6958 16.7661C88.5878 16.2284 88.3934 15.7782 88.1111 15.4153C87.8289 15.039 87.4386 14.7501 86.9418 14.5485C86.458 14.3334 85.8331 14.2259 85.067 14.2259C84.5291 14.2259 83.9783 14.367 83.4138 14.6493C82.8494 14.918 82.3857 15.3549 82.0228 15.9597H81.9623V10.5366H79.0996Z" fill="#223043"/>
<path id="Vector_12" d="M97.4601 18.6006H92.8031C92.8168 18.399 92.8571 18.1704 92.9241 17.9151C93.0047 17.6597 93.1329 17.4178 93.3072 17.1894C93.4958 16.9608 93.7377 16.7727 94.0329 16.6249C94.3425 16.4636 94.7256 16.383 95.182 16.383C95.8812 16.383 96.3988 16.5711 96.7343 16.9474C97.0843 17.3237 97.3262 17.8748 97.4601 18.6006ZM92.8031 20.415H100.323C100.377 19.6086 100.31 18.8357 100.121 18.0966C99.9333 17.3573 99.6244 16.6987 99.1939 16.1209C98.7777 15.5429 98.2399 15.0859 97.5811 14.75C96.923 14.4005 96.1497 14.2258 95.2627 14.2258C94.47 14.2258 93.7442 14.367 93.0854 14.6492C92.4403 14.9314 91.883 15.3212 91.4121 15.8185C90.9419 16.3023 90.5791 16.8802 90.3235 17.5522C90.0686 18.2242 89.9404 18.95 89.9404 19.7295C89.9404 20.5359 90.0614 21.2751 90.3033 21.9471C90.5589 22.6191 90.9153 23.197 91.3718 23.6809C91.829 24.1647 92.387 24.541 93.0451 24.8098C93.7039 25.0651 94.4433 25.1929 95.2627 25.1929C96.4456 25.1929 97.4536 24.924 98.2867 24.3865C99.1204 23.8488 99.7382 22.9551 100.141 21.7052H97.6214C97.5278 22.0278 97.2722 22.3368 96.8553 22.6326C96.4391 22.9148 95.9416 23.0559 95.3635 23.0559C94.5571 23.0559 93.9393 22.8475 93.5088 22.431C93.0789 22.0143 92.8435 21.3423 92.8031 20.415Z" fill="#223043"/>
<path id="Vector_13" d="M101.416 14.5081V24.9308H104.279V20.2335C104.279 19.7631 104.326 19.3263 104.42 18.9231C104.514 18.5199 104.669 18.1704 104.884 17.8748C105.113 17.5656 105.408 17.3237 105.771 17.149C106.133 16.9743 106.577 16.887 107.101 16.887C107.276 16.887 107.458 16.9003 107.645 16.9273C107.834 16.9407 107.995 16.9608 108.129 16.9878V14.3266C107.901 14.2594 107.693 14.2258 107.504 14.2258C107.141 14.2258 106.792 14.2795 106.456 14.3871C106.12 14.4946 105.804 14.6492 105.508 14.8508C105.213 15.0389 104.951 15.2742 104.722 15.5564C104.494 15.8252 104.313 16.1209 104.178 16.4434H104.138V14.5081H101.416Z" fill="#223043"/>
<path id="Vector_14" d="M112.114 22.2697V13.1977H114.372C115.152 13.1977 115.804 13.3119 116.328 13.5405C116.866 13.7555 117.295 14.0713 117.618 14.488C117.941 14.9046 118.17 15.4086 118.303 16C118.452 16.5779 118.525 17.2297 118.525 17.9555C118.525 18.7484 118.424 19.4204 118.223 19.9715C118.021 20.5225 117.753 20.9727 117.416 21.3222C117.081 21.6582 116.698 21.9001 116.267 22.048C115.837 22.1958 115.394 22.2697 114.937 22.2697H112.114ZM108.949 10.5366V24.9309H115.159C116.261 24.9309 117.215 24.7494 118.021 24.3865C118.841 24.0102 119.52 23.4995 120.057 22.8544C120.609 22.2093 121.019 21.4432 121.287 20.5561C121.556 19.6691 121.69 18.7014 121.69 17.6531C121.69 16.4569 121.523 15.4153 121.186 14.5283C120.864 13.6413 120.407 12.902 119.815 12.3107C119.238 11.7193 118.545 11.2758 117.739 10.9801C116.946 10.6844 116.086 10.5366 115.159 10.5366H108.949Z" fill="#223043"/>
<path id="Vector_15" d="M130.001 18.6006H125.344C125.358 18.399 125.398 18.1704 125.465 17.9151C125.546 17.6597 125.673 17.4178 125.848 17.1894C126.036 16.9608 126.278 16.7727 126.574 16.6249C126.884 16.4636 127.266 16.383 127.723 16.383C128.422 16.383 128.939 16.5711 129.275 16.9474C129.625 17.3237 129.866 17.8748 130.001 18.6006ZM125.344 20.415H132.864C132.918 19.6086 132.85 18.8357 132.662 18.0966C132.474 17.3573 132.165 16.6987 131.735 16.1209C131.318 15.5429 130.781 15.0859 130.122 14.75C129.464 14.4005 128.691 14.2258 127.804 14.2258C127.011 14.2258 126.285 14.367 125.626 14.6492C124.981 14.9314 124.424 15.3212 123.953 15.8185C123.483 16.3023 123.12 16.8802 122.864 17.5522C122.609 18.2242 122.481 18.95 122.481 19.7295C122.481 20.5359 122.602 21.2751 122.844 21.9471C123.1 22.6191 123.456 23.197 123.913 23.6809C124.37 24.1647 124.927 24.541 125.586 24.8098C126.245 25.0651 126.984 25.1929 127.804 25.1929C128.987 25.1929 129.995 24.924 130.828 24.3865C131.661 23.8488 132.279 22.9551 132.682 21.7052H130.162C130.068 22.0278 129.813 22.3368 129.396 22.6326C128.979 22.9148 128.483 23.0559 127.904 23.0559C127.098 23.0559 126.48 22.8475 126.05 22.431C125.62 22.0143 125.384 21.3423 125.344 20.415Z" fill="#223043"/>
<path id="Vector_16" d="M139.722 24.9308L143.25 14.5081H140.408L138.21 21.6245H138.17L135.973 14.5081H132.969L136.537 24.9308H139.722Z" fill="#223043"/>
</g>
<defs>
<clipPath id="clip0_268_3691">
<rect width="142.56" height="34.56" fill="white" transform="translate(0.799805 0.450684)"/>
</clipPath>
</defs>
</svg>
