<svg width="143" height="35" viewBox="0 0 143 35" fill="none" xmlns="http://www.w3.org/2000/svg">
<g id="Frame" clip-path="url(#clip0_268_3708)">
<path id="Vector" d="M8.97508 3.78607L12.6541 17.5162V2.42101C12.9458 2.35293 13.2406 2.29298 13.5383 2.2414V17.5176L17.6763 2.07471C17.9745 2.1017 18.2702 2.13703 18.5634 2.18044L14.3922 17.7477L22.6835 3.38669C22.9536 3.5082 23.2197 3.63713 23.4814 3.7732L15.1592 18.1878L27.0403 6.3067C27.2545 6.50926 27.4629 6.71779 27.6655 6.93201L15.7827 18.8148L30.199 10.4916C30.335 10.7534 30.4639 11.0194 30.5854 11.2896L16.2279 19.5788L31.791 15.4087C31.8343 15.7019 31.8696 15.9977 31.8966 16.2959L16.4539 20.4338H31.7297C31.6781 20.7315 31.6182 21.0264 31.5501 21.318H16.4516L30.1844 24.9977C30.0433 25.2678 29.8947 25.5332 29.7387 25.7938L16.2266 22.1732L27.5123 28.689C27.2987 28.9087 27.0786 29.1223 26.8525 29.3292L15.7855 22.9396L24.1597 31.3139C23.8949 31.4687 23.625 31.6159 23.3506 31.7553L15.1593 23.564L20.5263 32.86C20.2325 32.9431 19.9351 33.0178 19.6346 33.0839L14.3927 24.0048L16.92 33.4368C16.6947 33.4464 16.4682 33.4512 16.2406 33.4512C16.1629 33.4512 16.0854 33.4507 16.0079 33.4496L13.5383 24.2329V33.2199C13.2406 33.1683 12.9458 33.1084 12.6541 33.0403V24.2344L10.4765 32.3609C10.1989 32.2514 9.92496 32.1343 9.65521 32.0096L11.7996 24.0068L7.77416 30.9789C7.52497 30.8194 7.28056 30.6529 7.04121 30.4799L11.035 23.5625L5.44198 29.1556C5.22777 28.953 5.01924 28.7445 4.81668 28.5303L10.4079 22.9391L3.49249 26.9317C3.31945 26.6924 3.15299 26.448 2.99336 26.1987L9.96883 22.1715L1.96203 24.3169C1.83741 24.0471 1.7202 23.7732 1.61067 23.4956L9.73717 21.318H0.931191C0.8631 21.0264 0.803131 20.7315 0.751537 20.4338H9.73481L0.521733 17.9651C0.520592 17.8871 0.52002 17.8089 0.52002 17.7306C0.52002 17.5036 0.524832 17.2777 0.53436 17.053L9.96755 19.5806L0.88704 14.338C0.953159 14.0374 1.02788 13.7401 1.11093 13.4462L10.4107 18.8154L2.21595 10.6207C2.35536 10.3462 2.5026 10.0764 2.65736 9.81149L11.035 18.1892L4.64293 7.11772C4.84992 6.89166 5.06343 6.67166 5.28315 6.45804L11.8001 17.7458L8.17904 4.23162C8.43957 4.07568 8.70504 3.92707 8.97508 3.78607Z" fill="#223043"/>
<path id="Vector_2" d="M41.8569 24.8115H45.2783V18.8691H52.101V15.8479H45.2783V13.3069H52.5412V10.3057H41.8569V24.8115Z" fill="#223043"/>
<path id="Vector_3" d="M58.3561 16.2881C59.6566 16.2881 60.697 17.0884 60.697 19.3893C60.697 21.6502 59.6966 22.5106 58.3561 22.5106C57.0156 22.5106 56.0152 21.6502 56.0152 19.3893C56.0152 17.0884 57.0556 16.2881 58.3561 16.2881ZM58.3561 13.7271C55.3749 13.7271 52.6538 15.4878 52.6538 19.3893C52.6538 23.2909 55.3749 25.0716 58.3561 25.0716C61.3373 25.0716 64.0584 23.2909 64.0584 19.3893C64.0584 15.4878 61.3373 13.7271 58.3561 13.7271Z" fill="#223043"/>
<path id="Vector_4" d="M70.3972 13.7271C67.1359 13.7271 64.895 15.9479 64.895 19.3693C64.895 22.7907 66.8558 25.0716 70.3972 25.0716C72.558 25.0716 75.1391 24.0512 75.8794 20.8499H72.7981C72.558 21.8703 71.8178 22.5106 70.5973 22.5106C69.4168 22.5106 68.2564 21.7303 68.2564 19.3893C68.2564 17.0884 69.4168 16.2881 70.5973 16.2881C71.5777 16.2881 72.3579 16.7283 72.6581 17.9888H75.7393C75.099 14.7475 72.6381 13.7271 70.3972 13.7271Z" fill="#223043"/>
<path id="Vector_5" d="M83.637 18.0888C79.4553 18.4089 76.4741 19.2693 76.4741 21.9103C76.4741 23.8711 78.1548 25.0716 80.1956 25.0716C81.7362 25.0716 83.0168 24.6514 83.8171 23.511L83.8571 24.8115H87.0984C86.9383 24.1312 86.8583 22.8707 86.8583 21.6902V20.5698L86.8983 18.2288C86.9583 14.9675 85.1976 13.707 82.0964 13.707C78.8951 13.707 76.9743 15.5078 76.8143 17.5286H79.8955C80.0356 16.4881 80.7558 15.9479 81.8163 15.9479C83.0167 15.9479 83.637 16.3881 83.637 17.6686V18.0888ZM83.717 20.2897C83.717 22.2705 82.7166 22.8307 81.3961 22.8307C80.5358 22.8307 79.8755 22.3705 79.8755 21.6702C79.8755 20.5098 81.4161 20.2497 83.717 20.0296V20.2897Z" fill="#223043"/>
<path id="Vector_6" d="M91.8936 10.3057H88.5923V24.8115H91.8936V10.3057Z" fill="#223043"/>
<path id="Vector_7" d="M93.9985 10.3057V24.8115H97.4199V19.7895H99.5808C103.342 19.7895 106.163 18.8491 106.163 15.0276C106.163 11.226 103.342 10.3057 99.5808 10.3057H93.9985ZM99.6808 13.1868C101.281 13.1868 102.542 13.507 102.542 15.0276C102.542 16.5482 101.281 16.9083 99.6808 16.9083H97.4199V13.1868H99.6808Z" fill="#223043"/>
<path id="Vector_8" d="M111.964 16.2881C113.264 16.2881 114.304 17.0884 114.304 19.3893C114.304 21.6502 113.304 22.5106 111.964 22.5106C110.623 22.5106 109.623 21.6502 109.623 19.3893C109.623 17.0884 110.663 16.2881 111.964 16.2881ZM111.964 13.7271C108.982 13.7271 106.261 15.4878 106.261 19.3893C106.261 23.2909 108.982 25.0716 111.964 25.0716C114.945 25.0716 117.666 23.2909 117.666 19.3893C117.666 15.4878 114.945 13.7271 111.964 13.7271Z" fill="#223043"/>
<path id="Vector_9" d="M118.987 14.0472V24.8115H122.308V14.0472H118.987ZM118.987 10.3057V12.9467H122.288V10.3057H118.987Z" fill="#223043"/>
<path id="Vector_10" d="M127.574 14.047H124.273V24.8113H127.574V19.2891C127.574 17.2883 128.155 16.3679 129.575 16.3679C131.176 16.3679 131.236 17.6284 131.236 19.169V24.8113H134.537V18.3487C134.537 15.4275 133.677 13.8069 130.916 13.8069C129.215 13.8069 128.054 14.6672 127.574 15.4676V14.047Z" fill="#223043"/>
<path id="Vector_11" d="M136.819 14.0471H135.119V16.3881H136.819V21.7903C136.819 24.2913 137.72 24.8115 140.381 24.8115H142.482V22.4305H141.541C140.441 22.4305 140.121 22.2304 140.121 21.21V16.3881H142.482V14.0471H140.121V11.106H136.819V14.0471Z" fill="#223043"/>
</g>
<defs>
<clipPath id="clip0_268_3708">
<rect width="142.2" height="34.2995" fill="white" transform="translate(0.52002 0.581055)"/>
</clipPath>
</defs>
</svg>
