<svg width="902" height="59" viewBox="0 0 902 59" fill="none" xmlns="http://www.w3.org/2000/svg">
<g style="mix-blend-mode:darken">
<path fill-rule="evenodd" clip-rule="evenodd" d="M450.495 4.09648C448.682 17.2463 437.398 27.3732 423.75 27.3732H412.75H412.25H409.75H407.25H393.75H301.75H210.75H118.75H32.25C14.853 27.3732 0.75 41.4763 0.75 58.8732H1.75C1.75 42.0285 15.4053 28.3732 32.25 28.3732H110.845C97.2743 31.8803 87.25 44.2061 87.25 58.8732H88.25C88.25 42.0285 101.905 28.3732 118.75 28.3732H202.845C189.274 31.8803 179.25 44.2061 179.25 58.8732H180.25C180.25 42.0285 193.905 28.3732 210.75 28.3732H293.845C280.274 31.8803 270.25 44.2061 270.25 58.8732H271.25C271.25 42.0285 284.905 28.3732 301.75 28.3732H385.845C372.274 31.8803 362.25 44.2061 362.25 58.8732H363.25C363.25 42.0285 376.905 28.3732 393.75 28.3732H407.25H409.75H412.25H412.75H423.75C436.989 28.3732 448.082 19.1852 451 6.83796C453.918 19.1852 465.011 28.3732 478.25 28.3732H489.25H489.75H492.25H494.75H508.25C525.095 28.3732 538.75 42.0285 538.75 58.8732H539.75C539.75 44.2061 529.726 31.8803 516.155 28.3732H600.25C617.095 28.3732 630.75 42.0285 630.75 58.8732H631.75C631.75 44.2061 621.726 31.8803 608.155 28.3732H691.25C708.095 28.3732 721.75 42.0285 721.75 58.8732H722.75C722.75 44.2061 712.726 31.8803 699.155 28.3732H783.25C800.095 28.3732 813.75 42.0285 813.75 58.8732H814.75C814.75 44.2061 804.726 31.8803 791.155 28.3732H869.75C886.595 28.3732 900.25 42.0285 900.25 58.8732H901.25C901.25 41.4763 887.147 27.3732 869.75 27.3732H783.25H691.25H600.25H508.25H494.75H492.25H489.75H489.25H478.25C464.602 27.3732 453.318 17.2463 451.505 4.09648C451.666 2.87839 451.75 1.63557 451.75 0.37323H451.25H450.75H450.25C450.25 1.63557 450.334 2.8784 450.495 4.09648Z" fill="#A2D6C3"/>
</g>
</svg>
