<svg width="21" height="21" viewBox="0 0 21 21" fill="none" xmlns="http://www.w3.org/2000/svg">
<path id="Vector" d="M11.4104 0.723633C12.5358 0.725493 13.1061 0.731453 13.5989 0.746123L13.793 0.752463C14.0172 0.760433 14.2384 0.770433 14.5051 0.782933C15.5692 0.832103 16.2951 1.00043 16.9326 1.24793C17.5917 1.5021 18.1484 1.84543 18.7042 2.40127C19.2592 2.9571 19.6026 3.51543 19.8576 4.17293C20.1042 4.8096 20.2726 5.53627 20.3226 6.60043C20.3345 6.8671 20.3441 7.0883 20.352 7.31254L20.3583 7.50663C20.3729 7.99937 20.3796 8.56976 20.3817 9.6952L20.3825 10.4408C20.3826 10.5319 20.3826 10.6259 20.3826 10.7229L20.3825 11.005L20.3819 11.7507C20.38 12.8761 20.3741 13.4465 20.3594 13.9392L20.353 14.1333C20.3451 14.3576 20.3351 14.5788 20.3226 14.8454C20.2734 15.9096 20.1042 16.6354 19.8576 17.2729C19.6034 17.9321 19.2592 18.4888 18.7042 19.0446C18.1484 19.5996 17.5892 19.9429 16.9326 20.1979C16.2951 20.4446 15.5692 20.6129 14.5051 20.6629C14.2384 20.6748 14.0172 20.6845 13.793 20.6923L13.5989 20.6986C13.1061 20.7133 12.5358 20.7199 11.4104 20.7221L10.6647 20.7229C10.5736 20.7229 10.4796 20.7229 10.3826 20.7229H10.1005L9.35482 20.7222C8.22942 20.7204 7.65904 20.7144 7.16629 20.6997L6.97221 20.6934C6.74796 20.6854 6.52676 20.6754 6.2601 20.6629C5.19593 20.6138 4.47093 20.4446 3.8326 20.1979C3.17426 19.9438 2.61676 19.5996 2.06093 19.0446C1.5051 18.4888 1.1626 17.9296 0.907601 17.2729C0.660101 16.6354 0.492601 15.9096 0.442601 14.8454C0.430721 14.5788 0.421031 14.3576 0.413181 14.1333L0.406891 13.9392C0.392261 13.4465 0.385591 12.8761 0.383431 11.7507L0.383301 9.6952C0.385161 8.56976 0.391111 7.99937 0.405781 7.50663L0.412131 7.31254C0.420101 7.0883 0.430101 6.8671 0.442601 6.60043C0.491761 5.53543 0.660101 4.81043 0.907601 4.17293C1.16176 3.5146 1.5051 2.9571 2.06093 2.40127C2.61676 1.84543 3.1751 1.50293 3.8326 1.24793C4.4701 1.00043 5.1951 0.832933 6.2601 0.782933C6.52676 0.771063 6.74796 0.761373 6.97221 0.753523L7.16629 0.747233C7.65904 0.732593 8.22942 0.725923 9.35482 0.723763L11.4104 0.723633ZM10.3826 5.72293C7.6197 5.72293 5.3826 7.96246 5.3826 10.7229C5.3826 13.4858 7.62213 15.7229 10.3826 15.7229C13.1455 15.7229 15.3826 13.4834 15.3826 10.7229C15.3826 7.96003 13.143 5.72293 10.3826 5.72293ZM10.3826 7.72293C12.0395 7.72293 13.3826 9.0656 13.3826 10.7229C13.3826 12.3798 12.0399 13.7229 10.3826 13.7229C8.72572 13.7229 7.3826 12.3803 7.3826 10.7229C7.3826 9.066 8.72522 7.72293 10.3826 7.72293ZM15.6326 4.22293C14.9433 4.22293 14.3826 4.78284 14.3826 5.47208C14.3826 6.16133 14.9425 6.7221 15.6326 6.7221C16.3218 6.7221 16.8826 6.1622 16.8826 5.47208C16.8826 4.78284 16.3209 4.22207 15.6326 4.22293Z" fill="white"/>
</svg>
