<svg width="19" height="19" viewBox="0 0 19 19" fill="none" xmlns="http://www.w3.org/2000/svg">
<path id="Vector" d="M15.718 16.0624H13.0525V11.8856C13.0525 10.8896 13.0323 9.60789 11.6635 9.60789C10.2738 9.60789 10.0615 10.6917 10.0615 11.8121V16.0624H7.39603V7.47339H9.95653V8.64409H9.99103C10.3488 7.96909 11.2188 7.25664 12.5185 7.25664C15.2193 7.25664 15.7188 9.03419 15.7188 11.3479L15.718 16.0624ZM4.38556 6.29814C3.52756 6.29814 2.83831 5.60364 2.83831 4.74939C2.83831 3.89589 3.52831 3.20214 4.38556 3.20214C5.24056 3.20214 5.93356 3.89589 5.93356 4.74939C5.93356 5.60364 5.23981 6.29814 4.38556 6.29814ZM5.72206 16.0624H3.04906V7.47339H5.72206V16.0624ZM17.0515 0.723389H1.71106C0.976812 0.723389 0.382812 1.30389 0.382812 2.02014V17.4267C0.382812 18.1436 0.976812 18.7234 1.71106 18.7234H17.0493C17.7828 18.7234 18.3828 18.1436 18.3828 17.4267V2.02014C18.3828 1.30389 17.7828 0.723389 17.0493 0.723389H17.0515Z" fill="white"/>
</svg>
