<svg width="14" height="15" viewBox="0 0 14 15" fill="none" xmlns="http://www.w3.org/2000/svg">
<path id="Union" fill-rule="evenodd" clip-rule="evenodd" d="M7.13353 0.799805L8.1589 0.986142V0.985113C8.96602 1.13233 9.39017 1.89209 9.10088 2.67348C8.81159 3.45486 7.91388 3.97475 7.10676 3.82753L6.08139 3.6412L7.13353 0.799805ZM4.44761 1.28985L3.48401 1.68723L4.13568 4.64701L5.09928 4.24963C5.85801 3.93666 6.33158 3.01527 6.15348 2.20094C5.97435 1.38765 5.20738 0.976881 4.44864 1.28985H4.44761ZM0.893819 4.40713L1.48989 3.55162H1.48886C1.95831 2.87833 2.82514 2.80833 3.41607 3.39617C4.007 3.98401 4.10686 5.01556 3.63741 5.68884L3.04133 6.54435L0.893819 4.40713ZM0.224667 7.05291L0.185547 8.09476L3.14842 8.73201L3.18754 7.69017C3.21842 6.86966 2.57602 6.05534 1.7617 5.88032C0.947369 5.70531 0.255552 6.23241 0.224667 7.05291ZM1.05338 10.6829L1.58356 11.5796L4.41981 10.5141L3.88962 9.61736C3.47165 8.91113 2.49157 8.57243 1.71225 8.86584C0.931896 9.15924 0.635403 9.97666 1.05338 10.6829ZM11.4441 2.73729L10.6822 2.02592L8.26089 3.84811L9.02271 4.55949C9.6229 5.11953 10.6575 5.16792 11.3236 4.66656C11.9897 4.1652 12.0432 3.29734 11.4441 2.73729ZM13.0057 4.97644L13.2621 5.98637C13.4639 6.78113 12.9491 7.48222 12.1183 7.54398C11.2875 7.60575 10.4423 7.00556 10.2405 6.20977L9.98419 5.19984L13.0057 4.97644ZM13.0346 9.70284L13.365 8.71453L10.7018 7.26912L10.3713 8.25743C10.1108 9.03573 10.4969 9.99727 11.2299 10.3957C11.9618 10.7931 12.7741 10.4822 13.0346 9.70387V9.70284ZM11.6458 12.0532L10.8335 12.7059C10.1942 13.2196 9.34283 13.0425 8.94133 12.3126C8.53983 11.5817 8.73544 10.5635 9.37475 10.0498L10.187 9.39707L11.6458 12.0532ZM7.359 14.0421L8.3957 13.932L8.60468 10.9094L7.56799 11.0195C6.7516 11.106 6.03713 11.8565 5.97948 12.6883C5.92183 13.5191 6.54261 14.1286 7.359 14.0421ZM4.64424 13.757L3.71255 13.2885C2.97955 12.92 2.78704 12.0717 3.28428 11.4035C3.78153 10.7344 4.7894 10.4894 5.5224 10.8579L6.45408 11.3263L4.64424 13.757Z" fill="url(#paint0_angular_44_164)"/>
<defs>
<radialGradient id="paint0_angular_44_164" cx="0" cy="0" r="1" gradientUnits="userSpaceOnUse" gradientTransform="translate(5.58396 10.1623) rotate(158.565) scale(5.8132 5.78206)">
<stop stop-color="white"/>
<stop offset="1" stop-color="#FBFBFB"/>
</radialGradient>
</defs>
</svg>
