<svg width="163" height="41" viewBox="0 0 163 41" fill="none" xmlns="http://www.w3.org/2000/svg">
<g id="Logo">
<path id="Union" fill-rule="evenodd" clip-rule="evenodd" d="M152.23 30.1616C154.975 30.1616 157.303 29.213 159.219 27.3156C161.132 25.4183 162.09 23.0814 162.09 20.2986C162.09 17.5158 161.132 15.1789 159.219 13.2816C157.306 11.3842 154.975 10.4355 152.23 10.4355C149.486 10.4355 147.155 11.3842 145.242 13.2816C143.329 15.1789 142.37 17.5158 142.37 20.2986C142.37 23.0814 143.325 25.4183 145.242 27.3156C147.155 29.213 149.486 30.1616 152.23 30.1616ZM152.23 25.9337C150.659 25.9337 149.343 25.4088 148.287 24.3621C147.231 23.3154 146.703 21.9588 146.703 20.2986C146.703 18.6384 147.231 17.2818 148.287 16.2351C149.346 15.1884 150.659 14.6635 152.23 14.6635C153.802 14.6635 155.117 15.1884 156.174 16.2351C157.23 17.2818 157.758 18.6384 157.758 20.2986C157.758 21.9588 157.23 23.3154 156.174 24.3621C155.114 25.4088 153.802 25.9337 152.23 25.9337ZM63.5958 13.5377C61.8345 11.7225 59.643 10.815 57.0247 10.815V10.8181H49.4385V29.7821H57.0247C59.643 29.7821 61.8345 28.8746 63.5958 27.0594C65.3572 25.2443 66.2363 22.9896 66.2363 20.2986C66.2363 17.6075 65.3572 15.3528 63.5958 13.5377ZM60.6676 24.1597C59.7379 25.1241 58.5236 25.608 57.0247 25.608V25.6111H53.7739V14.9891H57.0247C58.5236 14.9891 59.7379 15.473 60.6676 16.4375C61.5973 17.4051 62.0622 18.689 62.0622 20.2986C62.0622 21.9081 61.5973 23.1952 60.6676 24.1597ZM76.3965 22.4932L82.7621 10.815H77.8322L74.2304 18.1008L70.6254 10.815H65.6955L72.0611 22.4932V29.779H76.3965V22.4932ZM94.9527 10.815H99.2881V29.779H96.0373L88.723 19.4827V29.779H84.3876V10.815H87.6384L94.9527 21.1113V10.815ZM113.888 26.8033L114.903 29.7821H114.906H119.343L112.879 10.8182H107.352L100.904 29.7821H105.644L106.593 26.8033H113.888ZM112.5 22.7367H107.905H107.902L110.125 15.7734L112.5 22.7367ZM139.929 10.815V29.779H135.594V18.7522L130.689 26.8001H130.202L125.298 18.7522V29.779H120.962V10.815H125.298L130.446 19.2424L135.594 10.815H139.929Z" fill="#223043"/>
<path id="Union_2" fill-rule="evenodd" clip-rule="evenodd" d="M21.3419 0L24.4915 0.572366V0.569204C26.9707 1.0214 28.2736 3.35514 27.385 5.75528C26.4964 8.15543 23.7389 9.75236 21.2597 9.30016L18.1101 8.72779L21.3419 0ZM13.0917 1.50519L10.1318 2.72582L12.1335 11.8173L15.0934 10.5966C17.4239 9.63532 18.8786 6.80511 18.3315 4.30378C17.7813 1.80561 15.4254 0.543872 13.0948 1.50519H13.0917ZM2.17568 11.0806L4.00662 8.45273H4.00345C5.44544 6.38462 8.10805 6.16959 9.92318 7.97523C11.7383 9.78087 12.045 12.9494 10.6031 15.0175L8.77212 17.6454L2.17568 11.0806ZM0.120165 19.2074L0 22.4076L9.10094 24.365L9.2211 21.1648C9.31597 18.6445 7.34273 16.1432 4.8414 15.6056C2.34006 15.068 0.215033 16.6871 0.120165 19.2074ZM2.66574 30.3575L4.29429 33.1119L13.0063 29.8389L11.3777 27.0846C10.0939 24.9153 7.08339 23.8749 4.68958 24.7762C2.29259 25.6774 1.38187 28.1882 2.66574 30.3575ZM34.5824 5.95129L32.2423 3.76618L24.8047 9.36336L27.1448 11.5485C28.9883 13.2687 32.1664 13.4174 34.2124 11.8773C36.2583 10.3373 36.4228 7.67155 34.5824 5.95129ZM39.3794 12.8292L40.1668 15.9314C40.7866 18.3727 39.2054 20.5261 36.6535 20.7159C34.1016 20.9056 31.5054 19.062 30.8856 16.6176L30.0982 13.5154L39.3794 12.8292ZM39.4679 27.347L40.483 24.3112L32.3023 19.8715L31.2872 22.9072C30.4871 25.2979 31.673 28.2514 33.9245 29.4752C36.1728 30.6958 38.6679 29.7408 39.4679 27.3502V27.347ZM35.2021 34.5664L32.7071 36.5713C30.7433 38.1492 28.1281 37.6053 26.8949 35.3633C25.6616 33.1181 26.2624 29.9906 28.2262 28.4127L30.7212 26.4078L35.2021 34.5664ZM22.0345 40.6758L25.2189 40.3375L25.8608 31.0531L22.6765 31.3915C20.1688 31.6571 17.9742 33.9624 17.7971 36.5175C17.62 39.0694 19.5269 40.9415 22.0345 40.6758ZM13.6957 39.7999L10.8339 38.3611C8.58234 37.229 7.991 34.6233 9.51837 32.571C11.0457 30.5156 14.1416 29.763 16.3931 30.895L19.2549 32.3339L13.6957 39.7999Z" fill="url(#paint0_angular_33_267)"/>
</g>
<defs>
<radialGradient id="paint0_angular_33_267" cx="0" cy="0" r="1" gradientUnits="userSpaceOnUse" gradientTransform="translate(16.5821 28.7584) rotate(158.565) scale(17.8562 17.7605)">
<stop stop-color="white"/>
<stop offset="1" stop-color="#11B68E"/>
</radialGradient>
</defs>
</svg>
