<svg width="117" height="27" viewBox="0 0 117 27" fill="none" xmlns="http://www.w3.org/2000/svg">
<g id="Frame" clip-path="url(#clip0_292_1039)">
<path id="Vector" d="M33.8022 14.3944C33.8252 13.9502 33.8252 13.5052 33.8022 13.061H8.50283C8.4975 13.1717 8.49283 13.283 8.49016 13.3944H3.19016L3.1875 13.561H0.333496V13.8944H3.18683L3.19083 14.061H8.49016C8.49283 14.173 8.49683 14.2837 8.5035 14.3944H15.7668C15.7393 14.1732 15.7255 13.9506 15.7255 13.7277H26.3922C26.3922 13.9537 26.3788 14.1764 26.3508 14.3944H33.8022ZM33.7495 12.3944H26.2248C26.1663 12.1675 26.0928 11.9448 26.0048 11.7277H16.1148C16.0275 11.9437 15.9535 12.1657 15.8948 12.3944H8.55483C8.56683 12.283 8.58016 12.1717 8.59483 12.061H3.29483L3.3175 11.8984H0.333496V11.565H3.37016L3.40083 11.3944H8.70083C8.72083 11.283 8.7435 11.1717 8.7675 11.061H33.5382C33.6315 11.4977 33.7028 11.9424 33.7495 12.3944ZM33.3762 10.3944H25.2228C25.0305 10.1544 24.818 9.93132 24.5875 9.72771H17.5315C17.3015 9.93171 17.0882 10.1544 16.8962 10.3944H8.9295C8.9595 10.283 8.9915 10.1717 9.02483 10.061H3.72483L3.7835 9.87371H0.333496V9.53971H3.89483L3.94683 9.39371H9.24683C9.28683 9.28171 9.3295 9.17105 9.3735 9.06038H32.9315C33.1035 9.49371 33.2522 9.93971 33.3762 10.3944ZM32.6448 8.39438H9.66016C9.71216 8.28238 9.7655 8.17171 9.82083 8.06105H4.5215L4.6155 7.87705H0.333496V7.54371H4.79616L4.88083 7.39438H10.1808C10.2455 7.28238 10.3122 7.17105 10.3802 7.06105H31.9248C32.1902 7.48905 32.4315 7.93438 32.6448 8.39438ZM8.55483 15.061H33.7502C33.7028 15.513 33.6315 15.9584 33.5382 16.3944H25.6795C25.8028 16.181 25.9122 15.9584 26.0055 15.7277H16.1135C16.2068 15.9584 16.3155 16.181 16.4388 16.3944H8.76683C8.7431 16.2836 8.72088 16.1725 8.70016 16.061H3.40083C3.38997 16.0025 3.37953 15.9438 3.3695 15.885H0.333496V15.5517H3.31683C3.30918 15.4993 3.30184 15.4469 3.29483 15.3944H8.59483C8.58003 15.2834 8.5667 15.1723 8.55483 15.061ZM8.92883 17.061H33.3755C33.2522 17.5164 33.1035 17.961 32.9315 18.3944H23.6435C23.9813 18.2069 24.2978 17.9833 24.5875 17.7277H17.5315C17.8212 17.9833 18.1377 18.2069 18.4755 18.3944H9.3735C9.32973 18.2839 9.28751 18.1727 9.24683 18.061H3.94683L3.8895 17.9004H0.333496V17.567H3.77883C3.76065 17.5096 3.74287 17.4521 3.7255 17.3944H9.02483C8.9915 17.2837 8.9595 17.173 8.92883 17.061ZM9.66016 19.061H32.6448C32.4317 19.5195 32.1913 19.9647 31.9248 20.3944H10.3802C10.3118 20.2843 10.2451 20.1732 10.1802 20.061H4.88083C4.8475 20.0037 4.81483 19.9464 4.78283 19.8884H0.333496V19.555H4.6035L4.5215 19.395H9.8215C9.7661 19.2847 9.71231 19.1736 9.66016 19.0617V19.061ZM11.6135 22.061C11.7115 22.1744 11.8122 22.285 11.9148 22.3944H30.3902C30.7836 21.9751 31.1482 21.5296 31.4815 21.061H10.8235C10.9035 21.1737 10.9848 21.285 11.0688 21.3944H5.76883L5.90083 21.5644H0.333496V21.8977H6.1735C6.2195 21.953 6.26616 22.007 6.3135 22.061H11.6135ZM13.8248 24.061C13.9868 24.1764 14.1515 24.2877 14.3182 24.3944H27.9868C28.6004 24.0003 29.179 23.5542 29.7162 23.061H12.5895C12.7128 23.1744 12.8388 23.2857 12.9668 23.3944H7.66683C7.73883 23.4557 7.8115 23.5157 7.88483 23.5744H0.333496V23.9077H8.31483C8.38416 23.9597 8.45483 24.011 8.5255 24.061H13.8255H13.8248ZM18.5028 26.117C19.3575 26.299 20.2435 26.3944 21.1522 26.3944C23.1882 26.3944 25.1115 25.9144 26.8155 25.061H15.4888C15.7262 25.1797 15.9668 25.291 16.2115 25.3944H10.9115C11.0062 25.4344 11.1015 25.4737 11.1968 25.5117H0.333496V25.845H12.1502C13.3215 26.2024 14.5648 26.3944 15.8528 26.3944C16.7615 26.3944 17.6482 26.299 18.5028 26.117ZM10.8235 6.39438H31.4815C31.1483 5.92579 30.7836 5.48033 30.3902 5.06105H11.9148C11.8122 5.17038 11.7115 5.28105 11.6128 5.39438H6.3135L6.19616 5.53171H0.333496V5.86505H5.9215C5.87016 5.92971 5.8195 5.99505 5.7695 6.06105H11.0688C10.9848 6.17105 10.9035 6.28238 10.8235 6.39438ZM12.5888 4.39438H29.7155C29.1786 3.90121 28.6002 3.45512 27.9868 3.06105H14.3182C14.1515 3.16838 13.9868 3.27971 13.8248 3.39438H8.5255C8.45216 3.44705 8.37883 3.49971 8.30683 3.55371H0.333496V3.88705H7.8775C7.80683 3.94438 7.73683 4.00238 7.6675 4.06105H12.9668C12.8388 4.16971 12.7128 4.28105 12.5888 4.39438ZM15.4895 2.39438H26.8162C25.0581 1.51467 23.1187 1.05808 21.1528 1.06105C20.2435 1.06105 19.3575 1.15705 18.5028 1.33905C17.6317 1.15385 16.7435 1.06067 15.8528 1.06105C14.4302 1.06105 13.0628 1.29571 11.7862 1.72771H0.333496V2.06105H16.2115C15.9674 2.16453 15.7266 2.2757 15.4895 2.39438ZM74.4988 0.873047C74.9368 0.873047 75.2808 0.98238 75.5308 1.20105C75.7915 1.40971 75.9215 1.70105 75.9215 2.07705C75.9215 2.45238 75.7915 2.74905 75.5308 2.96771C75.2808 3.17638 74.9368 3.28105 74.4988 3.28105C74.0615 3.28105 73.7122 3.17638 73.4515 2.96771C73.2015 2.74905 73.0762 2.45238 73.0762 2.07705C73.0762 1.70171 73.2015 1.41038 73.4515 1.20105C73.7122 0.98238 74.0615 0.873047 74.4988 0.873047ZM75.7182 4.73438V11.535C75.7182 11.973 75.7915 12.2704 75.9375 12.4264C76.0935 12.583 76.3542 12.661 76.7188 12.661V12.989C76.4272 12.9748 76.1354 12.9643 75.8435 12.9577C75.4425 12.9367 75.041 12.9263 74.6395 12.9264C74.2335 12.9264 73.8215 12.937 73.4048 12.9577C73.0921 12.9646 72.7794 12.9751 72.4668 12.989V12.661C72.8315 12.661 73.0868 12.583 73.2328 12.4264C73.3888 12.2704 73.4675 11.973 73.4675 11.535V6.61038C73.4675 6.14171 73.3942 5.79705 73.2482 5.57905C73.1128 5.34971 72.8522 5.23505 72.4668 5.23505V4.90638C72.8002 4.93771 73.1235 4.95305 73.4362 4.95305C73.8735 4.95305 74.2802 4.93771 74.6555 4.90638C75.0408 4.86505 75.3955 4.80771 75.7182 4.73438Z" fill="white"/>
<path id="Vector_2" fill-rule="evenodd" clip-rule="evenodd" d="M80.1182 6.16907V4.7344C79.7955 4.80774 79.4409 4.86507 79.0555 4.9064C78.6695 4.93774 78.2629 4.95307 77.8355 4.95307C77.5229 4.95307 77.2002 4.93774 76.8662 4.9064V5.23507C77.2415 5.23507 77.5022 5.34974 77.6482 5.57907C77.7942 5.79774 77.8669 6.14174 77.8669 6.6104V14.4277C77.8669 14.8444 77.7942 15.1257 77.6482 15.2717C77.5129 15.4177 77.2729 15.4904 76.9289 15.4904V15.8191L77.7575 15.7724C78.1379 15.7618 78.5184 15.7565 78.8989 15.7564C79.4302 15.7564 79.9309 15.7617 80.3995 15.7717C80.8789 15.7931 81.2542 15.8084 81.5255 15.8184V15.4904C81.0875 15.4904 80.7435 15.4071 80.4935 15.2404C80.2435 15.0844 80.1182 14.7611 80.1182 14.2711V12.7044C80.2555 12.8191 80.4169 12.9137 80.6029 12.9891C80.9362 13.1357 81.3062 13.2084 81.7129 13.2084C82.2655 13.2084 82.7602 13.1091 83.1982 12.9111C83.6435 12.7152 84.035 12.415 84.3395 12.0357C84.6622 11.6397 84.9075 11.1551 85.0742 10.5817C85.2515 10.0084 85.3402 9.34174 85.3402 8.5804C85.3402 7.71574 85.2149 6.9964 84.9649 6.42307C84.7149 5.83907 84.3809 5.40707 83.9642 5.12574C83.5478 4.83389 83.05 4.68064 82.5415 4.68774C81.9369 4.68774 81.4055 4.84374 80.9469 5.1564C80.5862 5.39974 80.3102 5.73707 80.1182 6.16974V6.16907ZM80.1182 6.7064V12.3737C80.2049 12.4764 80.3095 12.5617 80.4309 12.6297C80.6289 12.7337 80.8529 12.7857 81.1035 12.7857C81.5722 12.7857 81.9422 12.6297 82.2135 12.3171C82.4842 11.9937 82.6769 11.5457 82.7915 10.9724C82.9169 10.3891 82.9795 9.69574 82.9795 8.89307C82.9795 7.99707 82.9222 7.29307 82.8075 6.7824C82.6929 6.27174 82.5362 5.90707 82.3382 5.6884C82.1402 5.46907 81.9009 5.35974 81.6189 5.35974C81.2442 5.35974 80.9002 5.5064 80.5875 5.79774C80.3522 6.0244 80.1955 6.32774 80.1182 6.7064Z" fill="white"/>
<path id="Vector_3" d="M88.9296 4.68777C89.3676 4.68777 89.7476 4.74511 90.0709 4.85977C90.4042 4.96377 90.6442 5.06844 90.7902 5.17244C91.1442 5.41244 91.3636 5.25577 91.4469 4.70311H91.7749C91.7542 4.99511 91.7382 5.35511 91.7282 5.78177C91.7176 6.19911 91.7122 6.75644 91.7122 7.45511H91.3842C91.3308 7.06421 91.2309 6.68107 91.0869 6.31377C90.9542 5.95731 90.7339 5.64 90.4462 5.39111C90.1749 5.15111 89.8209 5.03111 89.3829 5.03111C89.0809 5.03111 88.8256 5.12044 88.6169 5.29777C88.4082 5.46444 88.3042 5.70911 88.3042 6.03244C88.3042 6.34511 88.3982 6.62111 88.5856 6.86111C88.7736 7.09044 89.0129 7.31444 89.3049 7.53311C89.6069 7.74177 89.9196 7.96577 90.2429 8.20511C90.5869 8.46577 90.8996 8.72644 91.1809 8.98711C91.4506 9.22288 91.6779 9.50317 91.8529 9.81577C92.0202 10.1178 92.1036 10.4771 92.1036 10.8944C92.1036 11.3631 91.9676 11.7744 91.6969 12.1291C91.4256 12.4731 91.0662 12.7391 90.6182 12.9264C90.1802 13.1144 89.6902 13.2084 89.1489 13.2084C88.8646 13.2117 88.5809 13.1801 88.3042 13.1144C88.0875 13.0604 87.8777 12.9817 87.6789 12.8798C87.5436 12.8171 87.4129 12.7598 87.2882 12.7078C87.1819 12.6493 87.0721 12.5972 86.9596 12.5518C86.8556 12.5204 86.7616 12.5564 86.6782 12.6611C86.6056 12.7651 86.5482 12.9111 86.5062 13.0984H86.1782C86.1989 12.7651 86.2149 12.3584 86.2249 11.8791C86.2356 11.3998 86.2409 10.7638 86.2409 9.97244H86.5689C86.6316 10.5351 86.7462 11.0351 86.9129 11.4724C87.0796 11.9004 87.3036 12.2391 87.5849 12.4891C87.8769 12.7291 88.2416 12.8491 88.6796 12.8491C88.8569 12.8491 89.0289 12.8124 89.1956 12.7391C89.3622 12.6658 89.4976 12.5458 89.6022 12.3791C89.7169 12.2124 89.7742 11.9991 89.7742 11.7391C89.7742 11.2798 89.6229 10.8991 89.3202 10.5971C89.0289 10.2951 88.6536 9.96644 88.1949 9.61244C87.8616 9.34111 87.5436 9.07577 87.2416 8.81511C86.9615 8.55888 86.7193 8.26416 86.5222 7.93977C86.3318 7.60678 86.2346 7.22864 86.2409 6.84511C86.2409 6.37644 86.3656 5.98044 86.6156 5.65711C86.8708 5.3304 87.212 5.0813 87.6009 4.93777C88.0236 4.76995 88.4747 4.68507 88.9296 4.68777ZM108.337 4.85977C108.066 4.74511 107.712 4.68777 107.274 4.68777C106.783 4.68279 106.3 4.80108 105.867 5.03177C105.44 5.25044 105.101 5.62044 104.85 6.14177V4.73511C104.528 4.80777 104.173 4.86511 103.788 4.90644C103.412 4.93777 103.006 4.95311 102.568 4.95311C102.256 4.95311 101.932 4.93777 101.599 4.90644V5.23511C101.984 5.23511 102.245 5.34977 102.38 5.57911C102.526 5.79777 102.599 6.14177 102.599 6.61044V11.5351C102.599 11.9731 102.521 12.2704 102.365 12.4264C102.219 12.5831 101.964 12.6611 101.599 12.6611V12.9891C101.911 12.9751 102.224 12.9647 102.537 12.9578C102.943 12.9372 103.35 12.9268 103.756 12.9264C104.121 12.9264 104.476 12.9371 104.819 12.9578C105.174 12.9684 105.434 12.9791 105.601 12.9891V12.6611C105.33 12.6611 105.137 12.5831 105.022 12.4264C104.908 12.2704 104.85 11.9731 104.85 11.5351V7.18911C104.85 6.84511 104.918 6.53777 105.054 6.26644C105.2 5.98511 105.387 5.76644 105.616 5.61044C105.836 5.45698 106.099 5.37505 106.367 5.37577C106.607 5.37577 106.784 5.43311 106.898 5.54777C107.024 5.65177 107.107 5.80311 107.149 6.00111C107.19 6.18844 107.211 6.41244 107.211 6.67311V11.5351C107.211 11.9731 107.154 12.2704 107.039 12.4264C106.935 12.5831 106.742 12.6611 106.461 12.6611V12.9891C106.648 12.9791 106.924 12.9684 107.29 12.9578C108.029 12.9156 108.77 12.9156 109.51 12.9578C109.895 12.9684 110.182 12.9791 110.369 12.9891V12.6611C110.036 12.6611 109.801 12.5831 109.666 12.4264C109.53 12.2704 109.462 11.9731 109.462 11.5351V7.25844L109.462 7.20977L109.459 7.05177C109.483 6.79045 109.553 6.53541 109.666 6.29844C109.812 6.01644 109.999 5.79244 110.228 5.62577C110.458 5.45911 110.708 5.37577 110.979 5.37577C111.25 5.37577 111.448 5.43311 111.573 5.54777C111.708 5.65177 111.797 5.80311 111.839 6.00111C111.891 6.18844 111.917 6.41244 111.917 6.67311V11.5351C111.917 11.9731 111.86 12.2704 111.745 12.4264C111.641 12.5831 111.448 12.6611 111.166 12.6611V12.9891C111.354 12.9791 111.63 12.9684 111.995 12.9578C112.365 12.9368 112.735 12.9263 113.105 12.9264C113.491 12.9264 113.882 12.9371 114.278 12.9578C114.674 12.9684 114.971 12.9791 115.169 12.9891V12.6611C114.804 12.6611 114.544 12.5831 114.387 12.4264C114.241 12.2704 114.168 11.9731 114.168 11.5351V7.32977C114.168 6.80844 114.132 6.39177 114.059 6.07911C113.986 5.75577 113.866 5.49577 113.699 5.29777C113.532 5.10977 113.314 4.96444 113.042 4.85977C112.772 4.74511 112.417 4.68777 111.98 4.68777C111.448 4.68777 110.948 4.79711 110.479 5.01577C110.03 5.23044 109.666 5.63977 109.386 6.24377C109.377 6.18859 109.366 6.13368 109.353 6.07911C109.28 5.75577 109.16 5.49577 108.994 5.29777C108.827 5.10977 108.608 4.96444 108.337 4.85977ZM100.372 11.2851V4.73444C100.049 4.80777 99.6949 4.86511 99.3089 4.90644C98.9342 4.93777 98.5276 4.95311 98.0896 4.95311C97.7769 4.95311 97.4542 4.93777 97.1202 4.90644V5.23511C97.5062 5.23511 97.7669 5.34977 97.9022 5.57911C98.0482 5.79777 98.1209 6.14177 98.1209 6.61044V10.7064C98.1209 11.0504 98.0482 11.3631 97.9022 11.6444C97.7784 11.902 97.5898 12.123 97.3549 12.2858C97.1362 12.4423 96.8731 12.5245 96.6042 12.5204C96.3442 12.5204 96.1462 12.4678 96.0102 12.3638C95.8697 12.2408 95.7713 12.0769 95.7289 11.8951C95.6846 11.6685 95.6636 11.438 95.6662 11.2071V4.73444C95.3436 4.80777 94.9889 4.86511 94.6036 4.90644C94.2282 4.93777 93.8216 4.95311 93.3842 4.95311C93.0716 4.95311 92.7482 4.93777 92.4149 4.90644V5.23511C92.8002 5.23511 93.0609 5.34977 93.1962 5.57911C93.3422 5.79777 93.4149 6.14177 93.4149 6.61044V10.5658C93.4149 11.0764 93.4516 11.4938 93.5249 11.8164C93.5976 12.1398 93.7229 12.4004 93.8996 12.5984C94.0562 12.7758 94.2696 12.9218 94.5409 13.0364C94.8116 13.1504 95.1662 13.2084 95.6042 13.2084C96.1462 13.2084 96.6356 13.0984 97.0736 12.8798C97.5216 12.6504 97.8709 12.2751 98.1209 11.7544V13.1611C98.4701 13.0751 98.8257 13.0176 99.1842 12.9891C99.5596 12.9578 99.9656 12.9424 100.404 12.9424C100.727 12.9424 101.05 12.9578 101.373 12.9891V12.6611C100.998 12.6611 100.737 12.5518 100.591 12.3324C100.445 12.1031 100.372 11.7544 100.372 11.2858V11.2851Z" fill="white"/>
<path id="Vector_4" fill-rule="evenodd" clip-rule="evenodd" d="M70.1307 5.10963C69.5573 4.8283 68.89 4.68763 68.1293 4.68763C67.3893 4.68763 66.7273 4.8283 66.144 5.10963C65.5707 5.39097 65.1173 5.8443 64.784 6.46963C64.4607 7.09497 64.2987 7.92363 64.2987 8.95563C64.2987 9.98763 64.4607 10.8156 64.7833 11.4416C65.1167 12.0563 65.57 12.5043 66.1433 12.7856C66.7273 13.067 67.3893 13.2083 68.1293 13.2083C68.89 13.2083 69.5573 13.067 70.1307 12.7856C70.7033 12.5043 71.152 12.0563 71.4747 11.4416C71.798 10.8163 71.9593 9.98763 71.9593 8.95563C71.9593 7.92363 71.798 7.09563 71.4747 6.46963C71.152 5.8443 70.7033 5.39097 70.1307 5.10963ZM67.082 5.9383C67.3633 5.31297 67.7127 5.0003 68.1293 5.0003C68.5567 5.0003 68.906 5.31297 69.1767 5.9383C69.458 6.55297 69.5987 7.55897 69.5987 8.95563C69.5987 10.3523 69.458 11.3583 69.1767 11.973C68.906 12.5876 68.5567 12.8956 68.1293 12.8956C67.7127 12.8956 67.3633 12.5876 67.082 11.973C66.8007 11.3583 66.66 10.3523 66.66 8.95563C66.66 7.55897 66.8 6.55297 67.082 5.9383ZM59.2007 15.9283C58.554 15.9283 57.976 15.871 57.4653 15.7563C56.9653 15.6523 56.5693 15.4856 56.2773 15.2563C55.996 15.037 55.8553 14.7663 55.8553 14.443C55.8553 14.1196 56.0007 13.8283 56.2927 13.5676C56.5847 13.3176 57.0173 13.1196 57.5907 12.9736L57.7307 13.2236C57.5517 13.358 57.4027 13.5283 57.2933 13.7236C57.21 13.9116 57.168 14.1043 57.168 14.3023C57.168 14.7403 57.366 15.0736 57.7627 15.3023C58.1693 15.5423 58.716 15.6623 59.404 15.6623C59.8727 15.6623 60.29 15.5996 60.6547 15.475C61.03 15.3496 61.3213 15.1616 61.53 14.9123C61.7493 14.6616 61.8587 14.3543 61.8587 13.9896C61.8587 13.677 61.744 13.411 61.5147 13.1923C61.2853 12.9836 60.8267 12.8796 60.1387 12.8796H59.1693C58.7427 12.8796 58.3667 12.833 58.044 12.739C57.7307 12.6456 57.486 12.499 57.3087 12.301C57.132 12.093 57.0433 11.8323 57.0433 11.5196C57.0433 11.0816 57.2153 10.6963 57.5593 10.3623C57.8287 10.101 58.2007 9.8523 58.6753 9.61697C58.3633 9.57816 58.0568 9.50322 57.762 9.39363C57.2933 9.2163 56.9233 8.94497 56.6527 8.5803C56.3813 8.21563 56.246 7.74697 56.246 7.17363C56.246 6.6003 56.3813 6.13097 56.6527 5.7663C56.9233 5.39097 57.2933 5.11963 57.7627 4.95297C58.2313 4.7763 58.7627 4.68763 59.3567 4.68763C59.9513 4.68763 60.4827 4.7763 60.9513 4.95363C61.2607 5.06297 61.526 5.2183 61.7493 5.4183C61.882 5.22697 62.0433 5.0563 62.2333 4.9063C62.588 4.63563 62.9687 4.49963 63.3747 4.49963C63.708 4.49963 63.9587 4.59363 64.1253 4.78163C64.3027 4.9583 64.3913 5.19297 64.3913 5.48497C64.3913 5.79763 64.3073 6.03163 64.1407 6.1883C63.974 6.33497 63.7867 6.40763 63.578 6.40763C63.3945 6.4052 63.2176 6.3387 63.078 6.21963C62.9313 6.0943 62.8487 5.90697 62.828 5.65697C62.81 5.43297 62.8727 5.15563 63.016 4.82363C62.712 4.95297 62.4773 5.1003 62.312 5.2663C62.1873 5.38647 62.0785 5.522 61.988 5.66963C62.0133 5.70097 62.038 5.73363 62.0613 5.7663C62.3327 6.13097 62.468 6.59963 62.468 7.17297C62.468 7.7463 62.3327 8.21563 62.0613 8.5803C61.7907 8.94497 61.4207 9.2163 60.9513 9.39363C60.4827 9.5703 59.9513 9.65897 59.3567 9.65897C59.2677 9.65906 59.1788 9.65706 59.09 9.65297C58.9493 9.7483 58.814 9.84963 58.6847 9.9563C58.6043 10.0191 58.5399 10.0999 58.4965 10.1922C58.453 10.2845 58.4319 10.3857 58.4347 10.4876C58.4347 10.821 58.6433 10.9876 59.06 10.9876H60.764C61.3373 10.9876 61.848 11.0556 62.296 11.191C62.7547 11.327 63.114 11.551 63.3747 11.8636C63.646 12.1656 63.7813 12.5616 63.7813 13.0516C63.7813 13.5623 63.6147 14.0363 63.2813 14.4743C62.958 14.9123 62.458 15.261 61.78 15.5216C61.1027 15.793 60.2427 15.9283 59.2007 15.9283ZM59.3567 9.37763C59.6387 9.37763 59.8567 9.22163 60.0133 8.90897C60.17 8.58563 60.248 8.00697 60.248 7.17363C60.248 6.33963 60.17 5.7663 60.0133 5.45363C59.8573 5.1303 59.6387 4.96897 59.3573 4.96897C59.086 4.96897 58.8673 5.1303 58.7007 5.45363C58.544 5.7663 58.466 6.33963 58.466 7.17363C58.466 8.00697 58.544 8.58563 58.7007 8.90897C58.8673 9.22163 59.086 9.37763 59.3567 9.37763ZM53.8313 5.10963C53.258 4.8283 52.5913 4.68763 51.8307 4.68763C51.0907 4.68763 50.4287 4.8283 49.8453 5.10963C49.272 5.39097 48.8187 5.8443 48.4853 6.46963C48.162 7.09497 48 7.92363 48 8.95563C48 9.98763 48.162 10.8156 48.4847 11.4416C48.818 12.0563 49.2713 12.5043 49.8447 12.7856C50.4287 13.067 51.0907 13.2083 51.8307 13.2083C52.5913 13.2083 53.2587 13.067 53.8313 12.7856C54.4047 12.5043 54.8527 12.0563 55.176 11.4416C55.4993 10.8163 55.6607 9.98763 55.6607 8.95563C55.6607 7.92363 55.4993 7.09563 55.176 6.46963C54.8533 5.8443 54.4047 5.39097 53.8313 5.10963ZM50.7827 5.9383C51.0647 5.31297 51.4133 5.0003 51.8307 5.0003C52.2573 5.0003 52.6067 5.31297 52.8773 5.9383C53.1593 6.55297 53.3 7.55897 53.3 8.95563C53.3 10.3523 53.1593 11.3583 52.878 11.973C52.6067 12.5876 52.258 12.8956 51.8307 12.8956C51.4133 12.8956 51.064 12.5876 50.7827 11.973C50.5013 11.3583 50.3607 10.3523 50.3607 8.95563C50.3607 7.55897 50.5013 6.55297 50.7827 5.9383Z" fill="white"/>
<path id="Vector_5" d="M43.7897 1.92041V2.23374C43.4357 2.24374 43.1644 2.28508 42.9771 2.35841C42.8913 2.38744 42.8138 2.43671 42.7511 2.50205C42.6885 2.56738 42.6425 2.64686 42.6171 2.73374C42.5551 2.91041 42.5237 3.19241 42.5237 3.57774V11.5197C42.5237 11.8424 42.5444 12.0824 42.5864 12.2391C42.6384 12.3951 42.7324 12.4991 42.8677 12.5517C43.0137 12.6037 43.2277 12.6297 43.5084 12.6297H44.2751C44.6284 12.6297 44.9624 12.5464 45.2751 12.3797C45.5884 12.2131 45.8691 11.9784 46.1191 11.6757C46.3827 11.3396 46.5938 10.9653 46.7451 10.5657C46.9117 10.1391 47.0364 9.66441 47.1197 9.14308H47.4797C47.4484 9.49774 47.4331 9.95641 47.4331 10.5191C47.4331 10.7591 47.4377 11.1077 47.4484 11.5664C47.4591 12.0251 47.4897 12.4997 47.5417 12.9891C46.9429 12.967 46.3436 12.9566 45.7444 12.9577C45.0777 12.9477 44.4831 12.9424 43.9617 12.9424H42.9617C42.5551 12.9424 42.1171 12.9477 41.6484 12.9577C41.1791 12.9577 40.7051 12.9631 40.2257 12.9737C39.7457 12.9737 39.2924 12.9791 38.8657 12.9891V12.6764C39.1991 12.6557 39.4491 12.6137 39.6157 12.5517C39.7824 12.4891 39.8917 12.3637 39.9444 12.1764C40.0064 11.9884 40.0377 11.7071 40.0377 11.3317V3.57774C40.0377 3.19174 40.0064 2.91108 39.9444 2.73374C39.9239 2.64702 39.8815 2.567 39.8213 2.50129C39.761 2.43559 39.685 2.3864 39.6004 2.35841C39.4337 2.28508 39.1884 2.24374 38.8657 2.23308V1.92041C39.6887 1.9509 40.5122 1.96646 41.3357 1.96708C41.7944 1.96708 42.2424 1.96241 42.6797 1.95174C43.1284 1.94108 43.4984 1.93108 43.7897 1.92041Z" fill="white"/>
<path id="Vector_6" fill-rule="evenodd" clip-rule="evenodd" d="M113.581 25.9083C113.559 25.7963 113.573 25.6503 113.626 25.4703L115.828 17.4923C115.475 17.6369 115.111 17.7496 114.738 17.829C114.356 17.9043 113.918 17.945 113.423 17.953L113.345 18.189C113.712 18.189 113.941 18.249 114.031 18.369C114.12 18.489 114.131 18.6756 114.064 18.9303L113.543 20.8963C113.51 20.8015 113.453 20.7166 113.379 20.6496C113.251 20.5296 113.075 20.4696 112.851 20.4696C112.401 20.4696 111.985 20.571 111.603 20.773C111.219 20.9829 110.873 21.2566 110.581 21.5823C110.273 21.9124 110.012 22.2829 109.805 22.6836C109.601 23.0736 109.439 23.4841 109.322 23.9083C109.215 24.2737 109.159 24.6518 109.153 25.0323C109.153 25.3916 109.21 25.6876 109.322 25.9196C109.435 26.1443 109.588 26.313 109.783 26.425C109.977 26.5303 110.195 26.5823 110.435 26.5823C110.801 26.5823 111.131 26.4743 111.423 26.257C111.715 26.0323 111.989 25.6876 112.244 25.223C112.351 25.0336 112.458 24.821 112.565 24.585L112.491 24.8636C112.423 25.0831 112.378 25.309 112.356 25.5376C112.341 25.7323 112.356 25.8976 112.401 26.0323C112.491 26.399 112.768 26.583 113.233 26.583C113.405 26.583 113.581 26.549 113.761 26.4816C113.941 26.4143 114.109 26.2983 114.266 26.133C114.431 25.9683 114.562 25.733 114.659 25.425L114.929 24.605H114.716L114.536 25.1103C114.401 25.493 114.274 25.751 114.154 25.8856C114.041 26.0136 113.925 26.077 113.805 26.077C113.678 26.077 113.603 26.021 113.581 25.9083ZM112.981 23.015C112.897 23.289 112.805 23.5496 112.705 23.7956C112.517 24.2756 112.319 24.6876 112.109 25.0323C111.907 25.369 111.708 25.631 111.513 25.819C111.319 25.9983 111.146 26.0883 110.997 26.0883C110.854 26.0883 110.749 26.021 110.682 25.8863C110.622 25.7436 110.592 25.5303 110.592 25.2456C110.592 24.841 110.637 24.429 110.727 24.0096C110.817 23.583 110.94 23.1743 111.097 22.785C111.242 22.4196 111.423 22.0694 111.637 21.7396C111.839 21.425 112.053 21.1776 112.277 20.9976C112.509 20.8176 112.738 20.7283 112.963 20.7283C113.113 20.7283 113.233 20.781 113.323 20.8856C113.385 20.9536 113.433 21.0523 113.467 21.183L112.981 23.015Z" fill="white"/>
<path id="Vector_7" d="M106.104 26.4251H104.722L106.07 21.5824C106.138 21.3577 106.16 21.2004 106.138 21.1104C106.115 21.0204 106.048 20.9757 105.935 20.9757C105.793 20.9757 105.662 21.0471 105.542 21.1891C105.422 21.3311 105.298 21.5824 105.171 21.9424L104.98 22.4697H104.766L105.058 21.6271C105.164 21.3271 105.294 21.0957 105.452 20.9304C105.609 20.7584 105.782 20.6384 105.969 20.5711C106.156 20.5037 106.347 20.4697 106.542 20.4697C106.782 20.4697 106.958 20.5184 107.07 20.6164C107.19 20.7137 107.265 20.8411 107.295 20.9984C107.333 21.168 107.34 21.3429 107.317 21.5151C107.302 21.6951 107.272 21.8711 107.227 22.0431L107.046 22.7477L107.092 22.6277C107.302 22.0957 107.504 21.6724 107.699 21.3577C107.902 21.0357 108.115 20.8071 108.34 20.6724C108.56 20.5386 108.813 20.4685 109.07 20.4697C109.34 20.4697 109.546 20.5484 109.688 20.7057C109.838 20.8631 109.913 21.0577 109.913 21.2904C109.913 21.4771 109.868 21.6537 109.778 21.8184C109.691 21.9729 109.567 22.104 109.418 22.2004C109.276 22.2904 109.112 22.3351 108.924 22.3351C108.737 22.3351 108.587 22.2864 108.474 22.1891C108.37 22.0917 108.317 21.9491 108.317 21.7624C108.317 21.5971 108.355 21.4477 108.43 21.3124C108.502 21.1806 108.601 21.0659 108.722 20.9757C108.842 20.8784 108.973 20.8111 109.115 20.7731C109.099 20.7576 109.08 20.7462 109.059 20.7397C109.034 20.7318 109.007 20.728 108.98 20.7284C108.816 20.7284 108.647 20.7884 108.474 20.9084C108.302 21.0204 108.122 21.2044 107.935 21.4591C107.748 21.7137 107.557 22.0504 107.362 22.4697C107.143 22.9656 106.948 23.472 106.778 23.9871C106.693 24.2364 106.608 24.5044 106.522 24.7917L106.104 26.4251Z" fill="white"/>
<path id="Vector_8" fill-rule="evenodd" clip-rule="evenodd" d="M101.905 24.689L101.857 24.8636C101.786 25.1174 101.737 25.3768 101.711 25.639C101.689 25.879 101.726 26.081 101.823 26.2456C101.973 26.4703 102.228 26.583 102.587 26.583C102.76 26.583 102.932 26.549 103.105 26.4816C103.284 26.4143 103.453 26.2983 103.61 26.133C103.767 25.961 103.899 25.721 104.003 25.4143L104.285 24.5943H104.071L103.902 25.0996C103.767 25.489 103.637 25.7476 103.509 25.875C103.382 26.0016 103.258 26.0656 103.138 26.0656C103.041 26.0656 102.977 26.0356 102.947 25.9756C102.924 25.8993 102.916 25.819 102.925 25.7396C102.939 25.6444 102.962 25.5505 102.992 25.459L104.442 20.4696C104.216 20.5236 103.987 20.5612 103.756 20.5823C103.524 20.605 103.273 20.6196 103.003 20.627L102.841 21.2283C102.834 21.0756 102.789 20.927 102.711 20.7956C102.653 20.6932 102.567 20.6087 102.464 20.5513C102.361 20.4938 102.245 20.4656 102.127 20.4696C101.797 20.4696 101.468 20.571 101.138 20.773C100.787 20.9934 100.473 21.2663 100.205 21.5823C99.9028 21.9269 99.639 22.3036 99.4186 22.7056C99.1976 23.1088 99.0206 23.5346 98.8906 23.9756C98.768 24.3725 98.7038 24.785 98.7 25.2003C98.7 25.6203 98.7973 25.957 98.992 26.2116C99.1866 26.459 99.4859 26.5823 99.8906 26.5823C100.175 26.5823 100.449 26.5003 100.711 26.3356C100.981 26.1703 101.235 25.897 101.475 25.5156C101.624 25.2856 101.767 25.0103 101.905 24.689ZM100.936 25.8296C100.763 25.987 100.61 26.0656 100.475 26.0656C100.363 26.0656 100.277 26.0096 100.217 25.897C100.164 25.777 100.138 25.579 100.138 25.3016C100.138 24.9043 100.183 24.4963 100.273 24.077C100.363 23.657 100.483 23.253 100.633 22.8636C100.79 22.4736 100.962 22.1256 101.149 21.8183C101.337 21.5116 101.524 21.2676 101.711 21.0876C101.906 20.9076 102.089 20.8183 102.262 20.8183C102.441 20.8183 102.569 20.9083 102.644 21.0876C102.719 21.2503 102.738 21.4683 102.702 21.741L102.37 22.969L102.408 22.7736C102.288 23.253 102.145 23.695 101.981 24.0996C101.837 24.4614 101.664 24.8108 101.464 25.1443C101.284 25.4363 101.108 25.665 100.936 25.8296ZM97.1893 25.4703C97.1366 25.6503 97.1219 25.7963 97.1446 25.9083C97.1666 26.021 97.2419 26.077 97.3693 26.077C97.4893 26.077 97.6053 26.0136 97.7173 25.8863C97.8373 25.751 97.9646 25.493 98.0993 25.1103L98.2793 24.605H98.4926L98.2233 25.425C98.126 25.7323 97.9946 25.9683 97.8299 26.133C97.6899 26.2861 97.5169 26.4053 97.3239 26.4816C97.1555 26.5471 96.9766 26.5814 96.7959 26.583C96.3319 26.583 96.0546 26.399 95.9646 26.0323C95.9172 25.872 95.902 25.7039 95.92 25.5376C95.9346 25.343 95.9793 25.1176 96.0546 24.8636L96.1286 24.585C96.0213 24.821 95.9139 25.0336 95.8073 25.223C95.5526 25.6876 95.2793 26.0323 94.9873 26.2563C94.7026 26.4713 94.3547 26.5862 93.9979 26.583C93.7586 26.583 93.5413 26.5296 93.3466 26.4256C93.1459 26.3069 92.9854 26.1306 92.8859 25.9196C92.7733 25.6876 92.7173 25.3916 92.7173 25.0323C92.7173 24.6876 92.7733 24.3123 92.8859 23.9083C92.9979 23.4963 93.1593 23.0883 93.3686 22.6836C93.5759 22.2831 93.8367 21.9125 94.144 21.5823C94.4513 21.245 94.7919 20.9756 95.1666 20.773C95.5509 20.5702 95.9795 20.466 96.414 20.4696C96.6386 20.4696 96.8146 20.5296 96.9419 20.6496C97.0153 20.7143 97.0706 20.7963 97.1066 20.8963L97.6273 18.9303C97.6953 18.6756 97.684 18.4883 97.594 18.3683C97.504 18.2483 97.2753 18.1883 96.9086 18.1883L96.9873 17.953C97.4283 17.9505 97.8682 17.909 98.302 17.829C98.6746 17.7496 99.0394 17.6369 99.3919 17.4923L97.1893 25.4703ZM96.2679 23.7956C96.3679 23.549 96.4606 23.289 96.5446 23.015L97.0306 21.183C97.0072 21.0736 96.9576 20.9716 96.8859 20.8856C96.8418 20.834 96.7866 20.793 96.7243 20.7658C96.6621 20.7385 96.5945 20.7257 96.5266 20.7283C96.3019 20.7283 96.0733 20.8183 95.8413 20.9976C95.6159 21.1776 95.4026 21.425 95.2006 21.7396C94.9866 22.0691 94.8059 22.419 94.6613 22.7843C94.5016 23.1809 94.3776 23.591 94.2906 24.0096C94.202 24.4157 94.1566 24.83 94.1553 25.2456C94.1553 25.5303 94.1853 25.7436 94.2453 25.8856C94.3126 26.021 94.4179 26.0883 94.5599 26.0883C94.7099 26.0883 94.882 25.9983 95.0766 25.8183C95.272 25.6316 95.47 25.369 95.6726 25.0316C95.9061 24.6375 96.1053 24.2239 96.2679 23.7956Z" fill="white"/>
<path id="Vector_9" d="M86.5293 26.4251H87.9113L88.0413 25.9171L88.0346 25.9537C88.1773 25.4291 88.338 24.9237 88.518 24.4364C88.6928 23.9713 88.8877 23.514 89.102 23.0657C89.3046 22.6457 89.5066 22.2791 89.7093 21.9644C89.9113 21.6497 90.106 21.4064 90.2933 21.2337C90.4806 21.0537 90.6526 20.9644 90.81 20.9644C90.9373 20.9644 91.016 21.0091 91.046 21.0991C91.0771 21.2012 91.081 21.3096 91.0573 21.4137C91.0349 21.5355 91.0048 21.6557 90.9673 21.7737L89.9453 24.8637C89.84 25.1784 89.78 25.4477 89.7653 25.6724C89.75 25.8971 89.7913 26.0811 89.8886 26.2231C89.964 26.3357 90.0686 26.4217 90.2033 26.4817C90.346 26.5484 90.5146 26.5831 90.7093 26.5831C90.8886 26.5831 91.0686 26.5491 91.2486 26.4817C91.436 26.4217 91.608 26.3091 91.7653 26.1444C91.93 25.9797 92.0653 25.7397 92.17 25.4251L92.4506 24.6051H92.2373L92.0573 25.1104C91.9153 25.5004 91.7806 25.7584 91.6533 25.8857C91.5333 26.0137 91.4173 26.0771 91.3046 26.0771C91.1846 26.0771 91.11 26.0284 91.08 25.9304C91.05 25.8264 91.0686 25.6724 91.136 25.4704L92.2373 22.1664C92.3346 21.8744 92.3833 21.6011 92.3833 21.3464C92.3906 21.0844 92.32 20.8744 92.17 20.7171C92.0273 20.5524 91.7726 20.4704 91.406 20.4704C91.1286 20.4704 90.8626 20.5304 90.608 20.6497C90.3533 20.7697 90.106 20.9791 89.8666 21.2791C89.6266 21.5711 89.3793 21.9684 89.1246 22.4697C88.9557 22.8079 88.8006 23.1528 88.66 23.5037L89.0346 22.0431C89.08 21.8631 89.1133 21.6831 89.136 21.5037C89.1586 21.3171 89.1506 21.1477 89.1133 20.9977C89.0775 20.8428 88.9856 20.7067 88.8553 20.6157C88.728 20.5184 88.5406 20.4697 88.2933 20.4697C87.9933 20.4697 87.72 20.5524 87.4726 20.7171C87.226 20.8817 87.0233 21.1851 86.866 21.6271L86.574 22.4697H86.7873L86.9786 21.9417C87.1133 21.5751 87.2366 21.3237 87.3493 21.1891C87.4693 21.0471 87.6 20.9757 87.7426 20.9757C87.8473 20.9757 87.9113 21.0057 87.934 21.0657C87.9633 21.1257 87.9713 21.2004 87.956 21.2904C87.9392 21.3889 87.9167 21.4864 87.8886 21.5824L86.5293 26.4251Z" fill="white"/>
<path id="Vector_10" fill-rule="evenodd" clip-rule="evenodd" d="M83.6653 24.8637L83.7127 24.6891C83.5926 24.976 83.449 25.2525 83.2833 25.5157C83.0433 25.8971 82.7887 26.1711 82.5187 26.3357C82.2567 26.5004 81.9833 26.5824 81.6987 26.5824C81.294 26.5824 80.9947 26.4591 80.8 26.2117C80.6047 25.9571 80.5073 25.6204 80.5073 25.2004C80.5073 24.8111 80.5713 24.4031 80.6987 23.9757C80.8286 23.5347 81.0057 23.1089 81.2267 22.7057C81.4468 22.3035 81.7106 21.9268 82.0133 21.5824C82.2809 21.2664 82.5955 20.9934 82.946 20.7731C83.2753 20.5711 83.6053 20.4697 83.9347 20.4697C84.1893 20.4697 84.384 20.5784 84.5193 20.7964C84.5913 20.9077 84.6347 21.0517 84.6487 21.2284L84.8113 20.6271C85.0807 20.6197 85.332 20.6051 85.564 20.5824C85.804 20.5597 86.032 20.5224 86.2493 20.4697L84.8 25.4597C84.7695 25.5512 84.747 25.6451 84.7327 25.7404C84.7241 25.8198 84.7318 25.9001 84.7553 25.9764C84.7853 26.0364 84.8487 26.0664 84.946 26.0664C85.066 26.0664 85.1893 26.0031 85.3167 25.8757C85.444 25.7484 85.5753 25.4891 85.71 25.1004L85.8787 24.5944H86.092L85.8113 25.4144C85.7067 25.7217 85.5753 25.9611 85.418 26.1344C85.278 26.2871 85.1053 26.4061 84.9127 26.4824C84.7481 26.5483 84.5726 26.5827 84.3953 26.5837C84.036 26.5837 83.7813 26.4711 83.6313 26.2464C83.534 26.0817 83.4967 25.8797 83.5193 25.6397C83.5455 25.3776 83.5943 25.1175 83.6653 24.8637ZM82.2827 26.0657C82.418 26.0657 82.5713 25.9871 82.744 25.8297C82.916 25.6651 83.092 25.4364 83.272 25.1444C83.4513 24.8524 83.624 24.5044 83.7887 24.0997C83.9533 23.6951 84.096 23.2531 84.216 22.7731L84.178 22.9691L84.51 21.7417C84.5453 21.4684 84.526 21.2504 84.452 21.0884C84.3767 20.9084 84.2493 20.8184 84.0693 20.8184C83.8973 20.8184 83.714 20.9084 83.5193 21.0877C83.332 21.2677 83.1447 21.5111 82.9573 21.8184C82.77 22.1251 82.5973 22.4737 82.44 22.8631C82.2891 23.2576 82.1689 23.6633 82.0807 24.0764C81.9926 24.4789 81.9475 24.8897 81.946 25.3017C81.946 25.5791 81.972 25.7777 82.0247 25.8971C82.0847 26.0097 82.1707 26.0657 82.2827 26.0657Z" fill="white"/>
<path id="Vector_11" d="M81.287 20.8517L81.321 20.627H79.9823L80.5117 18.7844C80.2902 18.8389 80.0649 18.8766 79.8377 18.897C79.6057 18.919 79.3543 18.9344 79.085 18.9417L78.6017 20.627H77.579L77.523 20.8517H78.5377L77.3877 24.8637C77.2903 25.193 77.257 25.489 77.287 25.751C77.3243 26.0057 77.429 26.2084 77.6017 26.3577C77.781 26.5077 78.0397 26.583 78.377 26.583C78.759 26.583 79.0883 26.4817 79.3657 26.279C79.643 26.077 79.8603 25.7437 80.0177 25.279L80.2423 24.605H80.0283L79.8603 25.0657C79.725 25.4404 79.5757 25.7024 79.4103 25.8524C79.253 26.0024 79.0957 26.077 78.9383 26.077C78.8765 26.0791 78.815 26.0669 78.7586 26.0415C78.7022 26.0161 78.6524 25.9781 78.613 25.9304C78.5377 25.8337 78.5303 25.6804 78.5903 25.4704L79.9177 20.8517H81.287ZM77.5657 18.391C77.491 18.5857 77.3897 18.871 77.2623 19.245C77.1423 19.6117 77.023 20.0917 76.903 20.683H76.6783C76.7003 20.5784 76.7157 20.4697 76.723 20.3577C76.7374 20.2572 76.7449 20.1559 76.7457 20.0544C76.7457 19.7617 76.6857 19.5077 76.5657 19.2904C76.4504 19.0625 76.2654 18.8773 76.0377 18.7617C75.8057 18.627 75.5057 18.5597 75.139 18.5597C74.7417 18.5597 74.4043 18.6644 74.1277 18.8744C73.8503 19.0764 73.7117 19.4024 73.7117 19.8517C73.7117 20.129 73.775 20.3917 73.9023 20.6384C74.0377 20.8784 74.2063 21.1144 74.4083 21.3464C74.6183 21.571 74.839 21.7997 75.071 22.0317C75.3037 22.2564 75.521 22.489 75.723 22.7284C75.925 22.9684 76.0903 23.223 76.2177 23.4924C76.3523 23.755 76.4197 24.043 76.4197 24.3577C76.4197 24.755 76.3223 25.0957 76.1277 25.3804C75.9378 25.66 75.6882 25.8941 75.397 26.0657C75.0917 26.2403 74.7624 26.369 74.4197 26.4477C74.0897 26.5358 73.7498 26.5813 73.4083 26.583C73.071 26.583 72.7903 26.5564 72.5657 26.5044C72.3736 26.4682 72.1881 26.4037 72.015 26.313C71.8679 26.2324 71.7217 26.1502 71.5763 26.0664C71.5102 26.0109 71.4339 25.9688 71.3517 25.9424C71.2993 25.9161 71.2422 25.9006 71.1837 25.897C71.0857 25.897 71.0037 25.9457 70.9363 26.0437C70.8479 26.1901 70.7728 26.344 70.7117 26.5037H70.4863C70.6719 26.0468 70.8261 25.5777 70.9477 25.0997C71.037 24.755 71.1383 24.3244 71.251 23.807H71.4757C71.4443 23.9559 71.4181 24.1057 71.397 24.2564C71.3743 24.4064 71.367 24.5564 71.3743 24.7064C71.397 25.2304 71.5577 25.635 71.8577 25.9197C72.165 26.2044 72.6143 26.3464 73.2057 26.3464C73.7077 26.3464 74.0863 26.2417 74.341 26.0324C74.5957 25.815 74.723 25.5004 74.723 25.0884C74.723 24.7737 74.663 24.4884 74.543 24.2344C74.4297 23.9702 74.2783 23.724 74.0937 23.5037C73.9032 23.2758 73.7047 23.0547 73.4983 22.841C73.2916 22.6273 73.0928 22.4061 72.9023 22.1777C72.7184 21.9508 72.5636 21.7018 72.4417 21.4364C72.319 21.1526 72.2579 20.8461 72.2623 20.537C72.2623 20.163 72.341 19.837 72.4983 19.5597C72.6568 19.2892 72.8711 19.0556 73.127 18.8744C73.3894 18.687 73.6821 18.5463 73.9923 18.4584C74.2941 18.3631 74.6085 18.3139 74.925 18.3124C75.3297 18.3124 75.663 18.361 75.925 18.459C76.1877 18.5557 76.4123 18.6724 76.5997 18.807L76.813 18.9417C76.8803 18.9717 76.933 18.9864 76.9703 18.9864C77.075 18.9864 77.199 18.7884 77.341 18.391H77.5657Z" fill="white"/>
<path id="Vector_12" fill-rule="evenodd" clip-rule="evenodd" d="M66.7188 25.9083C66.6962 25.7963 66.7115 25.6503 66.7642 25.4703L68.9662 17.4923C68.6136 17.6369 68.2488 17.7496 67.8762 17.829C67.4942 17.9043 67.0562 17.945 66.5615 17.953L66.4828 18.189C66.8495 18.189 67.0788 18.249 67.1682 18.369C67.2582 18.489 67.2695 18.6756 67.2022 18.9303L66.6808 20.8963C66.6481 20.8015 66.5916 20.7165 66.5168 20.6496C66.3895 20.5296 66.2135 20.4696 65.9888 20.4696C65.5388 20.4696 65.1235 20.571 64.7415 20.773C64.3573 20.9829 64.0114 21.2566 63.7188 21.5823C63.4114 21.9124 63.1506 22.2829 62.9435 22.6836C62.7394 23.0736 62.5774 23.4841 62.4602 23.9083C62.3535 24.2736 62.2967 24.6517 62.2915 25.0323C62.2915 25.3916 62.3482 25.6876 62.4602 25.9196C62.5728 26.1443 62.7262 26.313 62.9208 26.425C63.1155 26.5303 63.3328 26.5823 63.5728 26.5823C63.9395 26.5823 64.2695 26.4743 64.5615 26.257C64.8535 26.0323 65.1268 25.6876 65.3815 25.223C65.4882 25.0336 65.5955 24.821 65.7028 24.585L65.6295 24.8636C65.5613 25.0831 65.516 25.3089 65.4942 25.5376C65.4763 25.7039 65.4915 25.872 65.5388 26.0323C65.6288 26.399 65.9055 26.583 66.3708 26.583C66.5428 26.583 66.7188 26.549 66.8988 26.4816C67.0788 26.4143 67.2468 26.2983 67.4042 26.133C67.5695 25.9683 67.7002 25.733 67.7975 25.425L68.0675 24.605H67.8542L67.6742 25.1103C67.5395 25.493 67.4122 25.751 67.2922 25.8856C67.1795 26.0136 67.0635 26.077 66.9435 26.077C66.8168 26.077 66.7415 26.021 66.7188 25.9083ZM66.1188 23.015C66.0348 23.289 65.9428 23.5496 65.8422 23.7956C65.6555 24.2756 65.4568 24.6876 65.2468 25.0323C65.0448 25.369 64.8462 25.631 64.6515 25.819C64.4568 25.9983 64.2848 26.0883 64.1342 26.0883C63.9922 26.0883 63.8875 26.021 63.8202 25.8863C63.7602 25.7436 63.7302 25.5303 63.7302 25.2456C63.7302 24.841 63.7748 24.429 63.8648 24.0096C63.9548 23.583 64.0782 23.1743 64.2355 22.785C64.3805 22.4195 64.5614 22.0694 64.7755 21.7396C64.9775 21.425 65.1908 21.1776 65.4155 20.9976C65.6475 20.8176 65.8762 20.7283 66.1008 20.7283C66.2508 20.7283 66.3708 20.781 66.4608 20.8856C66.5235 20.9536 66.5715 21.0523 66.6048 21.183L66.1188 23.015Z" fill="white"/>
<path id="Vector_13" d="M57.4855 26.4251H56.1035L57.4635 21.5824C57.4935 21.4777 57.5155 21.3804 57.5302 21.2904C57.5469 21.2151 57.5392 21.1364 57.5082 21.0657C57.4855 21.0057 57.4215 20.9757 57.3168 20.9757C57.1748 20.9757 57.0435 21.0471 56.9235 21.1891C56.8115 21.3237 56.6875 21.5751 56.5529 21.9424L56.3622 22.4697H56.1488L56.4409 21.6271C56.5982 21.1851 56.8008 20.8817 57.0475 20.7171C57.2942 20.5524 57.5675 20.4704 57.8675 20.4704C58.1149 20.4704 58.3022 20.5184 58.4295 20.6157C58.5601 20.7066 58.6523 20.8427 58.6882 20.9977C58.7255 21.1477 58.7329 21.3164 58.7109 21.5037C58.6879 21.6854 58.6541 21.8655 58.6095 22.0431L58.2348 23.5044C58.3935 23.1117 58.5482 22.7677 58.6995 22.4697C58.9542 21.9684 59.2009 21.5711 59.4409 21.2791C59.6809 20.9791 59.9275 20.7697 60.1822 20.6497C60.4375 20.5297 60.7029 20.4697 60.9802 20.4697C61.3469 20.4697 61.6022 20.5524 61.7442 20.7171C61.8942 20.8744 61.9655 21.0837 61.9575 21.3464C61.9575 21.6011 61.9095 21.8744 61.8115 22.1664L60.7109 25.4704C60.6429 25.6724 60.6242 25.8264 60.6542 25.9304C60.6842 26.0284 60.7595 26.0771 60.8795 26.0771C60.9915 26.0771 61.1075 26.0137 61.2275 25.8864C61.3549 25.7584 61.4895 25.4997 61.6322 25.1104L61.8122 24.6051H62.0255L61.7442 25.4251C61.6395 25.7397 61.5042 25.9797 61.3402 26.1451C61.199 26.2992 61.021 26.4151 60.8229 26.4817C60.6507 26.5478 60.4679 26.5821 60.2835 26.5831C60.0889 26.5831 59.9202 26.5491 59.7782 26.4817C59.6428 26.4217 59.5382 26.3351 59.4635 26.2231C59.3662 26.0811 59.3249 25.8971 59.3395 25.6724C59.3549 25.4477 59.4148 25.1784 59.5195 24.8637L60.5422 21.7737C60.5795 21.6537 60.6095 21.5337 60.6322 21.4137C60.6558 21.3096 60.6519 21.2012 60.6208 21.0991C60.5908 21.0091 60.5122 20.9644 60.3849 20.9644C60.2275 20.9644 60.0549 21.0544 59.8682 21.2337C59.6809 21.4064 59.4855 21.6497 59.2835 21.9644C59.0593 22.3189 58.8567 22.6867 58.6768 23.0657C58.4748 23.4857 58.2795 23.9417 58.0922 24.4364C57.9122 24.9231 57.7522 25.4291 57.6095 25.9537L57.6162 25.9171L57.4855 26.4251Z" fill="white"/>
<path id="Vector_14" fill-rule="evenodd" clip-rule="evenodd" d="M53.2867 24.689L53.24 24.8637C53.1693 25.1175 53.1202 25.3769 53.0934 25.639C53.0707 25.879 53.108 26.081 53.2054 26.2457C53.3554 26.4704 53.61 26.583 53.97 26.583C54.1622 26.5817 54.352 26.541 54.5278 26.4637C54.7037 26.3863 54.8619 26.2738 54.9927 26.133C55.15 25.961 55.2807 25.721 55.386 25.4144L55.666 24.5944H55.4527L55.2847 25.0997C55.1494 25.489 55.018 25.7477 54.8914 25.875C54.764 26.0017 54.64 26.0657 54.5207 26.0657C54.4227 26.0657 54.3594 26.0357 54.3294 25.9757C54.3059 25.8994 54.2982 25.8191 54.3067 25.7397C54.322 25.6424 54.344 25.5491 54.3747 25.4591L55.824 20.4697C55.5986 20.5236 55.3695 20.5613 55.1387 20.5824C54.906 20.605 54.6554 20.6197 54.3854 20.627L54.2227 21.2284C54.2158 21.0757 54.1713 20.9271 54.0934 20.7957C54.0349 20.6934 53.9496 20.609 53.8467 20.5515C53.7438 20.4941 53.6271 20.4658 53.5094 20.4697C53.1794 20.4697 52.8494 20.571 52.52 20.773C52.1907 20.9757 51.88 21.245 51.5874 21.5824C51.2847 21.9268 51.0209 22.3035 50.8007 22.7057C50.5797 23.1089 50.4027 23.5347 50.2727 23.9757C50.1501 24.3725 50.0859 24.7851 50.082 25.2004C50.082 25.6204 50.1794 25.957 50.374 26.2117C50.5687 26.459 50.8687 26.5824 51.2727 26.5824C51.5574 26.5824 51.8314 26.5004 52.0927 26.3357C52.3627 26.1704 52.618 25.897 52.8574 25.5157C53.006 25.2857 53.1487 25.0104 53.2867 24.689ZM52.318 25.8297C52.146 25.9871 51.992 26.0657 51.8574 26.0657C51.7447 26.0657 51.6587 26.0097 51.5987 25.897C51.5467 25.777 51.52 25.5791 51.52 25.3017C51.52 24.9044 51.5654 24.4964 51.6554 24.077C51.7447 23.657 51.8647 23.253 52.0147 22.8637C52.172 22.4737 52.344 22.1257 52.5314 21.8184C52.7187 21.5117 52.906 21.2677 53.0934 21.0877C53.288 20.9077 53.4714 20.8184 53.644 20.8184C53.824 20.8184 53.9507 20.9084 54.026 21.0877C54.1007 21.2504 54.1194 21.4684 54.084 21.741L53.752 22.969L53.79 22.7737C53.67 23.2531 53.528 23.695 53.3634 24.0997C53.198 24.5037 53.026 24.8524 52.846 25.1444C52.666 25.4364 52.49 25.6651 52.318 25.8297Z" fill="white"/>
<path id="Vector_15" d="M47.0768 26.4251H45.6948L47.0428 21.5824C47.1102 21.3577 47.1328 21.2004 47.1102 21.1104C47.0882 21.0204 47.0208 20.9757 46.9082 20.9757C46.7662 20.9757 46.6348 21.0471 46.5148 21.1891C46.3948 21.3311 46.2715 21.5824 46.1442 21.9424L45.9528 22.4697H45.7395L46.0315 21.6271C46.1368 21.3271 46.2675 21.0957 46.4248 20.9304C46.5822 20.7584 46.7548 20.6384 46.9422 20.5711C47.1288 20.5037 47.3202 20.4697 47.5155 20.4697C47.7548 20.4697 47.9308 20.5184 48.0428 20.6164C48.162 20.712 48.2421 20.8479 48.2682 20.9984C48.3055 21.1557 48.3128 21.3277 48.2902 21.5151C48.2755 21.6951 48.2455 21.8711 48.2002 22.0431L48.0202 22.7477L48.0382 22.6991L48.0655 22.6277C48.2755 22.0957 48.4775 21.6724 48.6722 21.3577C48.8748 21.0357 49.0882 20.8071 49.3128 20.6724C49.533 20.5386 49.7859 20.4685 50.0435 20.4697C50.3128 20.4697 50.5188 20.5484 50.6615 20.7057C50.8108 20.8631 50.8862 21.0577 50.8862 21.2904C50.8862 21.4771 50.8408 21.6537 50.7508 21.8184C50.6636 21.9729 50.5403 22.104 50.3915 22.2004C50.243 22.292 50.0712 22.3387 49.8968 22.3351C49.7102 22.3351 49.5602 22.2864 49.4475 22.1891C49.3428 22.0917 49.2902 21.9491 49.2902 21.7624C49.2902 21.5971 49.3275 21.4477 49.4028 21.3124C49.4775 21.1777 49.5748 21.0657 49.6948 20.9757C49.8148 20.8784 49.9455 20.8111 50.0882 20.7731C50.0724 20.7577 50.0532 20.7463 50.0322 20.7397C50.0172 20.7347 50.0018 20.7313 49.9862 20.7297C49.9751 20.7287 49.964 20.7282 49.9528 20.7284C49.7888 20.7284 49.6195 20.7884 49.4475 20.9084C49.2755 21.0204 49.0955 21.2044 48.9082 21.4591C48.7215 21.7137 48.5302 22.0504 48.3348 22.4697C48.1152 22.9656 47.9203 23.472 47.7508 23.9871C47.6662 24.2357 47.5808 24.5044 47.4955 24.7917L47.0768 26.4251Z" fill="white"/>
<path id="Vector_16" fill-rule="evenodd" clip-rule="evenodd" d="M44.9748 18.8857C44.6002 18.6157 44.0008 18.4811 43.1768 18.4811C42.9222 18.4811 42.6675 18.4851 42.4122 18.4924C42.1655 18.4997 41.8808 18.5037 41.5588 18.5037H40.9968C40.7942 18.4957 40.6035 18.4924 40.4235 18.4924C40.2737 18.4858 40.1239 18.4782 39.9742 18.4697L39.9182 18.6944C40.2102 18.6944 40.4088 18.7317 40.5135 18.8071C40.6262 18.8737 40.6782 18.9791 40.6708 19.1217C40.6557 19.3037 40.6256 19.4841 40.5808 19.6611L39.0975 25.2344C39.0308 25.5037 38.9555 25.7064 38.8728 25.8411C38.7982 25.9699 38.6781 26.0662 38.5362 26.1111C38.3935 26.1557 38.1948 26.1857 37.9402 26.2004L37.8955 26.4251C38.0222 26.4184 38.1762 26.4144 38.3555 26.4144C38.5355 26.4064 38.7268 26.4031 38.9288 26.4031C39.4943 26.3859 40.0603 26.3896 40.6255 26.4144C40.9328 26.4211 41.2142 26.4257 41.4688 26.4257C41.9555 26.4257 42.4162 26.3764 42.8508 26.2791C43.2515 26.1882 43.6347 26.0328 43.9855 25.8191C44.2994 25.6321 44.5649 25.3741 44.7608 25.0657C44.9555 24.7657 45.0528 24.4144 45.0528 24.0097C45.0528 23.5524 44.8662 23.1591 44.4915 22.8297C44.1248 22.4997 43.5435 22.3051 42.7495 22.2451C43.2449 22.1739 43.7262 22.0262 44.1762 21.8071C44.5962 21.5897 44.9255 21.3237 45.1655 21.0091C45.4071 20.7103 45.538 20.3373 45.5362 19.9531C45.5362 19.5037 45.3502 19.1477 44.9748 18.8857ZM41.3882 22.3917L40.6368 25.2344C40.5922 25.4211 40.5622 25.5864 40.5475 25.7284C40.5395 25.8711 40.5768 25.9797 40.6595 26.0551C40.7422 26.1297 40.8955 26.1671 41.1202 26.1671C41.6522 26.1671 42.0868 26.0657 42.4235 25.8637C42.7534 25.6697 43.0162 25.3797 43.1768 25.0324C43.3415 24.6724 43.4235 24.2677 43.4235 23.8191C43.4235 23.5411 43.3748 23.2977 43.2775 23.0884C43.1918 22.8757 43.0377 22.6977 42.8395 22.5824C42.6375 22.4551 42.3675 22.3917 42.0302 22.3917H41.3882ZM41.4388 22.2004H41.9522C42.3788 22.2004 42.7422 22.0917 43.0415 21.8744C43.3488 21.6497 43.5815 21.3577 43.7388 20.9984C43.9027 20.6424 43.9869 20.2549 43.9855 19.8631C43.9855 19.4884 43.9108 19.2004 43.7608 18.9977C43.6188 18.7957 43.3675 18.6944 43.0075 18.6944C42.7462 18.6944 42.5588 18.7471 42.4462 18.8517C42.3342 18.9491 42.2368 19.1624 42.1542 19.4917L41.4388 22.2004Z" fill="white"/>
</g>
<defs>
<clipPath id="clip0_292_1039">
<rect width="116" height="26" fill="white" transform="translate(0.333496 0.873047)"/>
</clipPath>
</defs>
</svg>
