<svg width="29" height="30" viewBox="0 0 29 30" fill="none" xmlns="http://www.w3.org/2000/svg">
<g id="2">
<path id="Vector" d="M4.63988 4.27205L14.5002 2.08087L24.3605 4.27205C24.9096 4.39406 25.3002 4.88104 25.3002 5.44348V17.4276C25.3002 19.8349 24.0971 22.083 22.094 23.4183L14.5002 28.4809L6.90636 23.4183C4.90333 22.083 3.7002 19.8349 3.7002 17.4276V5.44348C3.7002 4.88104 4.09083 4.39406 4.63988 4.27205ZM14.5002 17.0809L18.0269 18.935L17.3533 15.0079L20.2066 12.2268L16.2636 11.6538L14.5002 8.08087L12.7368 11.6538L8.79386 12.2268L11.647 15.0079L10.9735 18.935L14.5002 17.0809Z" fill="#FF7020"/>
</g>
</svg>
