<svg width="141" height="36" viewBox="0 0 141 36" fill="none" xmlns="http://www.w3.org/2000/svg">
<g id="Group 1">
<path id="Union" fill-rule="evenodd" clip-rule="evenodd" d="M132.43 26.7438C134.803 26.7438 136.816 25.9235 138.473 24.2828C140.127 22.6422 140.956 20.6214 140.956 18.2151C140.956 15.8088 140.127 13.7881 138.473 12.1474C136.819 10.5067 134.803 9.6864 132.43 9.6864C130.056 9.6864 128.041 10.5067 126.387 12.1474C124.732 13.7881 123.904 15.8088 123.904 18.2151C123.904 20.6214 124.73 22.6422 126.387 24.2828C128.041 25.9235 130.056 26.7438 132.43 26.7438ZM132.43 23.0879C131.071 23.0879 129.933 22.634 129.02 21.7289C128.107 20.8238 127.65 19.6507 127.65 18.2151C127.65 16.7795 128.107 15.6065 129.02 14.7014C129.936 13.7963 131.071 13.3423 132.43 13.3423C133.789 13.3423 134.926 13.7963 135.84 14.7014C136.753 15.6065 137.21 16.7795 137.21 18.2151C137.21 19.6507 136.753 20.8238 135.84 21.7289C134.924 22.634 133.789 23.0879 132.43 23.0879ZM55.7865 12.3688C54.2634 10.7993 52.3685 10.0145 50.1044 10.0145V10.0172H43.5444V26.4157H50.1044C52.3685 26.4157 54.2634 25.6309 55.7865 24.0613C57.3096 22.4917 58.0698 20.5421 58.0698 18.2151C58.0698 15.8881 57.3096 13.9384 55.7865 12.3688ZM53.2544 21.5538C52.4505 22.3878 51.4005 22.8062 50.1044 22.8062V22.8089H47.2934V13.6239H50.1044C51.4005 13.6239 52.4505 14.0423 53.2544 14.8763C54.0584 15.7131 54.4603 16.8232 54.4603 18.2151C54.4603 19.6069 54.0584 20.7198 53.2544 21.5538ZM66.8555 20.1128L72.3599 10.0145H68.0969L64.9824 16.3146L61.8652 10.0145H57.6022L63.1066 20.1128V26.4129H66.8555V20.1128ZM82.9009 10.0145H86.6498V26.413H83.8388L77.5141 17.5096V26.413H73.7651V10.0145H76.5761L82.9009 18.9179V10.0145ZM99.2751 23.8398L100.153 26.4157H100.156H103.992L98.4028 10.0172H93.623L88.0475 26.4157H92.1464L92.9667 23.8398H99.2751ZM98.0746 20.3233H94.1015H94.0988L96.0211 14.3021L98.0746 20.3233ZM121.793 10.0145V26.4129H118.044V16.8779L113.803 23.8371H113.382L109.141 16.8779V26.4129H105.392V10.0145H109.141L113.593 17.3018L118.044 10.0145H121.793Z" fill="white"/>
<path id="Union_2" fill-rule="evenodd" clip-rule="evenodd" d="M19.2492 0.662842L21.9727 1.15778V1.15504C24.1165 1.54607 25.2431 3.56408 24.4747 5.63952C23.7063 7.71496 21.3219 9.09585 19.1781 8.70483L16.4546 8.2099L19.2492 0.662842ZM12.1147 1.9644L9.55522 3.01989L11.2861 10.8814L13.8456 9.82591C15.8608 8.99464 17.1187 6.54732 16.6456 4.38438C16.1698 2.22417 14.1327 1.13313 12.1174 1.9644H12.1147ZM2.67533 10.2444L4.25858 7.97206H4.25584C5.50275 6.18373 7.80514 5.99779 9.37471 7.55916C10.9443 9.12052 11.2095 11.8604 9.96262 13.6488L8.37938 15.9211L2.67533 10.2444ZM0.898342 17.2717L0.794434 20.039L8.66415 21.7316L8.76806 18.9644C8.85009 16.785 7.1438 14.6221 4.98086 14.1572C2.81792 13.6924 0.980376 15.0924 0.898342 17.2717ZM3.09987 26.9134L4.5081 29.2951L12.0415 26.465L10.6333 24.0833C9.52307 22.2074 6.91988 21.3078 4.84991 22.0871C2.7772 22.8664 1.98968 25.0376 3.09987 26.9134ZM30.6986 5.80899L28.6751 3.91949L22.2437 8.75945L24.2672 10.649C25.8614 12.1365 28.6095 12.265 30.3787 10.9333C32.1478 9.60166 32.29 7.29653 30.6986 5.80899ZM34.8464 11.7565L35.5273 14.439C36.0632 16.55 34.696 18.4121 32.4893 18.5762C30.2826 18.7402 28.0376 17.1461 27.5017 15.0323L26.8208 12.3499L34.8464 11.7565ZM34.9234 24.3102L35.8011 21.6852L28.7271 17.846L27.8494 20.4711C27.1576 22.5383 28.183 25.0923 30.1299 26.1505C32.0741 27.206 34.2316 26.3802 34.9234 24.313V24.3102ZM31.2343 30.5529L29.0768 32.2866C27.3787 33.6511 25.1173 33.1807 24.0509 31.242C22.9844 29.3006 23.504 26.5962 25.2021 25.2317L27.3596 23.4981L31.2343 30.5529ZM19.8484 35.8359L22.6019 35.5433L23.157 27.515L20.4035 27.8075C18.235 28.0372 16.3373 30.0306 16.1842 32.2401C16.0311 34.4468 17.68 36.0655 19.8484 35.8359ZM12.6376 35.0784L10.1629 33.8342C8.21598 32.8553 7.70464 30.6021 9.02538 28.8275C10.3461 27.0501 13.0231 26.3993 14.97 27.3782L17.4447 28.6224L12.6376 35.0784Z" fill="url(#paint0_angular_281_916)"/>
</g>
<defs>
<radialGradient id="paint0_angular_281_916" cx="0" cy="0" r="1" gradientUnits="userSpaceOnUse" gradientTransform="translate(15.1334 25.5306) rotate(158.566) scale(15.4407 15.3578)">
<stop stop-color="white"/>
<stop offset="1" stop-color="#FF0808"/>
</radialGradient>
</defs>
</svg>
