<svg width="24" height="25" viewBox="0 0 24 25" fill="none" xmlns="http://www.w3.org/2000/svg">
<g id="2">
<path id="Vector" d="M17 16.0054V22.8769C17 23.153 16.7761 23.377 16.5 23.377C16.4094 23.377 16.3205 23.3523 16.2428 23.3057L12 20.76L7.75725 23.3057C7.52046 23.4477 7.21333 23.3709 7.07125 23.1342C7.02463 23.0564 7 22.9675 7 22.8769V16.0054C5.17107 14.5393 4 12.2864 4 9.76001C4 5.34173 7.58172 1.76001 12 1.76001C16.4183 1.76001 20 5.34173 20 9.76001C20 12.2864 18.8289 14.5393 17 16.0054ZM12 15.76C15.3137 15.76 18 13.0737 18 9.76001C18 6.4463 15.3137 3.76001 12 3.76001C8.68629 3.76001 6 6.4463 6 9.76001C6 13.0737 8.68629 15.76 12 15.76ZM12 13.76C9.79086 13.76 8 11.9691 8 9.76001C8 7.55087 9.79086 5.76001 12 5.76001C14.2091 5.76001 16 7.55087 16 9.76001C16 11.9691 14.2091 13.76 12 13.76Z" fill="#FF7020"/>
</g>
</svg>
