<svg width="21" height="17" viewBox="0 0 21 17" fill="none" xmlns="http://www.w3.org/2000/svg">
<path id="Vector" d="M20.3844 2.40214C19.621 2.73984 18.8114 2.96164 17.9825 3.0602C18.8558 2.53741 19.5093 1.71499 19.8212 0.746142C19.0006 1.2337 18.1024 1.57686 17.1657 1.7607C16.375 0.917152 15.2699 0.439122 14.1137 0.440432C11.8045 0.440432 9.93158 2.3127 9.93158 4.62292C9.93158 4.95067 9.96918 5.26851 10.0395 5.57518C6.56235 5.40013 3.48195 3.73614 1.41866 1.2055C1.04717 1.84376 0.85193 2.56927 0.85292 3.30776C0.85292 4.75868 1.59148 6.03933 2.71337 6.78909C2.04925 6.76809 1.39976 6.58873 0.81906 6.26582C0.81842 6.28339 0.81842 6.30096 0.81842 6.31757C0.81842 8.34449 2.26007 10.0353 4.17387 10.4192C3.81468 10.5164 3.4442 10.5655 3.0721 10.5652C2.80185 10.5652 2.53959 10.5403 2.28467 10.4914C2.81719 12.1526 4.36074 13.362 6.19148 13.3952C4.71001 14.5579 2.88057 15.1887 0.99731 15.186C0.664 15.1863 0.33097 15.1666 0 15.1272C1.91192 16.3563 4.1374 17.0086 6.4103 17.0062C14.1035 17.0062 18.3099 10.6336 18.3099 5.1072C18.3099 4.92639 18.3055 4.74495 18.2975 4.56606C19.1162 3.97454 19.8229 3.24176 20.3844 2.40214Z" fill="white"/>
</svg>
