<svg width="21" height="17" viewBox="0 0 21 17" fill="none" xmlns="http://www.w3.org/2000/svg">
<path id="Vector" d="M10.6282 0.723633C11.1623 0.726573 12.4986 0.739493 13.9184 0.796363L14.4218 0.818313C15.8513 0.885993 17.2796 1.00161 17.988 1.19913C18.9329 1.46458 19.6756 2.23913 19.9266 3.22095C20.3263 4.78004 20.3763 7.82303 20.3825 8.55943L20.3834 8.71203V8.72273C20.3834 8.72273 20.3834 8.72643 20.3834 8.73353L20.3825 8.88613C20.3763 9.62253 20.3263 12.6655 19.9266 14.2246C19.6721 15.21 18.9294 15.9846 17.988 16.2464C17.2796 16.4439 15.8513 16.5595 14.4218 16.6272L13.9184 16.6491C12.4986 16.706 11.1623 16.7189 10.6282 16.7219L10.3938 16.7227H10.3834C10.3834 16.7227 10.3799 16.7227 10.373 16.7227L10.1388 16.7219C9.00838 16.7157 4.282 16.6646 2.77879 16.2464C1.83388 15.9809 1.0912 15.2064 0.840147 14.2246C0.440477 12.6655 0.390517 9.62253 0.384277 8.88613V8.55943C0.390517 7.82303 0.440477 4.78004 0.840147 3.22095C1.09468 2.23549 1.83736 1.46095 2.77879 1.19913C4.282 0.780863 9.00838 0.729853 10.1388 0.723633H10.6282ZM8.38339 5.22277V12.2227L14.3834 8.72273L8.38339 5.22277Z" fill="white"/>
</svg>
